<svg width="97" height="97" viewBox="0 0 97 97" fill="none" xmlns="http://www.w3.org/2000/svg">
<g clip-path="url(#clip0_13_1089)">
<path fill-rule="evenodd" clip-rule="evenodd" d="M0 9.7C0 4.33267 4.33913 0 9.7 0H87.3C92.6609 0 97 4.33267 97 9.7V67.8547C97 73.2221 92.6609 77.5547 87.3 77.5547H63.1664L51.1901 95.4997C50.8949 95.9426 50.4948 96.3057 50.0255 96.5568C49.5563 96.8079 49.0322 96.9393 48.5 96.9393C47.9678 96.9393 47.4437 96.8079 46.9745 96.5568C46.5052 96.3057 46.1051 95.9426 45.8099 95.4997L33.8401 77.5547H9.7C4.33913 77.5547 0 73.2221 0 67.8547V9.7ZM45.4219 56.454L70.3315 27.9877L65.4685 23.7327L45.1115 46.9997L34.6225 36.5043L30.0441 41.0827L45.4219 56.454Z" fill="#4C739B"/>
</g>
<defs>
<clipPath id="clip0_13_1089">
<rect width="97" height="97" fill="white"/>
</clipPath>
</defs>
</svg>
