<svg width="97" height="97" viewBox="0 0 97 97" fill="none" xmlns="http://www.w3.org/2000/svg">
<g clip-path="url(#clip0_177_909)">
<path fill-rule="evenodd" clip-rule="evenodd" d="M0 9.7C0 4.33267 4.33913 0 9.7 0H87.3C92.6609 0 97 4.33267 97 9.7V67.8547C97 73.2221 92.6609 77.5547 87.3 77.5547H63.1664L51.1901 95.4997C50.8949 95.9426 50.4948 96.3057 50.0255 96.5568C49.5563 96.8079 49.0322 96.9393 48.5 96.9393C47.9678 96.9393 47.4437 96.8079 46.9745 96.5568C46.5052 96.3057 46.1051 95.9426 45.8099 95.4997L33.8401 77.5547H9.7C4.33913 77.5547 0 73.2221 0 67.8547V9.7Z" fill="#4C739B"/>
<path fill-rule="evenodd" clip-rule="evenodd" d="M27 39.5C27 33.7978 29.2652 28.3292 33.2972 24.2972C37.3292 20.2652 42.7978 18 48.5 18C54.2022 18 59.6708 20.2652 63.7028 24.2972C67.7348 28.3292 70 33.7978 70 39.5C70 45.2022 67.7348 50.6708 63.7028 54.7028C59.6708 58.7348 54.2022 61 48.5 61C42.7978 61 37.3292 58.7348 33.2972 54.7028C29.2652 50.6708 27 45.2022 27 39.5ZM48.5 21.0839C43.6158 21.0839 38.9316 23.0242 35.4779 26.4779C32.0242 29.9316 30.0839 34.6158 30.0839 39.5C30.0839 44.3842 32.0242 49.0684 35.4779 52.5221C38.9316 55.9758 43.6158 57.916 48.5 57.916C53.3842 57.916 58.0684 55.9758 61.5221 52.5221C64.9758 49.0684 66.916 44.3842 66.916 39.5C66.916 34.6158 64.9758 29.9316 61.5221 26.4779C58.0684 23.0242 53.3842 21.0839 48.5 21.0839ZM56.1417 31.8615C56.446 32.1659 56.6169 32.5787 56.6169 33.0091C56.6169 33.4395 56.446 33.8523 56.1417 34.1567L50.7951 39.5L56.1417 44.8433C56.4465 45.1481 56.6177 45.5615 56.6177 45.9925C56.6177 46.4235 56.4465 46.8369 56.1417 47.1417C55.8369 47.4465 55.4235 47.6177 54.9925 47.6177C54.5615 47.6177 54.1481 47.4465 53.8433 47.1417L48.5 41.7951L43.1567 47.1417C43.0057 47.2926 42.8266 47.4123 42.6294 47.494C42.4322 47.5757 42.2209 47.6177 42.0075 47.6177C41.7941 47.6177 41.5827 47.5757 41.3855 47.494C41.1884 47.4123 41.0092 47.2926 40.8583 47.1417C40.7074 46.9908 40.5877 46.8116 40.506 46.6145C40.4243 46.4173 40.3823 46.2059 40.3823 45.9925C40.3823 45.7791 40.4243 45.5678 40.506 45.3706C40.5877 45.1734 40.7074 44.9943 40.8583 44.8433L46.2049 39.5L40.8583 34.1567C40.5535 33.8519 40.3823 33.4385 40.3823 33.0075C40.3823 32.5764 40.5535 32.1631 40.8583 31.8583C41.1631 31.5535 41.5764 31.3823 42.0075 31.3823C42.4385 31.3823 42.8519 31.5535 43.1567 31.8583L48.5 37.2049L53.8433 31.8583C53.9941 31.7071 54.1732 31.5872 54.3704 31.5054C54.5676 31.4236 54.779 31.3814 54.9925 31.3814C55.206 31.3814 55.4174 31.4236 55.6146 31.5054C55.8118 31.5872 55.9909 31.7104 56.1417 31.8615Z" fill="white"/>
</g>
<defs>
<clipPath id="clip0_177_909">
<rect width="97" height="97" fill="white"/>
</clipPath>
</defs>
</svg>
