<svg width="20" height="24" viewBox="0 0 20 24" fill="none" xmlns="http://www.w3.org/2000/svg">
<g clip-path="url(#clip0_1_135)">
<path d="M16.9839 9.03807V6.62636C16.9839 3.18441 13.8485 0.398071 10.0005 0.398071C6.15251 0.398071 3.01712 3.18441 3.01712 6.62636V9.03807C1.54444 9.29563 0.404297 10.56 0.404297 12.1054V20.5112C0.404297 22.2205 1.82948 23.6254 3.56344 23.6254H16.4613C18.1953 23.6254 19.6204 22.2205 19.6204 20.5112V12.1054C19.6204 10.56 18.4803 9.29563 17.0076 9.03807H16.9839ZM3.89598 6.62636C3.89598 3.65271 6.62757 1.241 10.0005 1.241C13.3734 1.241 16.105 3.65271 16.105 6.62636V8.99124H3.89598V6.62636ZM18.7416 20.5112C18.7416 21.7522 17.7202 22.759 16.4613 22.759H3.53969C2.28078 22.759 1.2594 21.7522 1.2594 20.5112V12.1054C1.2594 10.8644 2.28078 9.85758 3.53969 9.85758H16.4375C17.6965 9.85758 18.7178 10.8644 18.7178 12.1054V20.5112H18.7416Z" fill="#D1D1D1" stroke="#D1D1D1" stroke-width="0.33" stroke-miterlimit="10"/>
<path d="M9.99991 12.4332C9.02604 12.4332 8.24219 13.2059 8.24219 14.1425V16.7181C8.24219 17.6781 9.02604 18.4274 9.99991 18.4274C10.9738 18.4274 11.7339 17.6547 11.7339 16.7181V14.1425C11.7339 13.1825 10.95 12.4332 9.99991 12.4332ZM10.8788 16.7415C10.8788 17.2098 10.4987 17.6079 9.99991 17.6079C9.50109 17.6079 9.12105 17.2332 9.12105 16.7415V14.1659C9.12105 13.6976 9.50109 13.2996 9.99991 13.2996C10.4987 13.2996 10.8788 13.6742 10.8788 14.1659V16.7415Z" fill="#D1D1D1" stroke="#D1D1D1" stroke-width="0.33" stroke-miterlimit="10"/>
</g>
<defs>
<clipPath id="clip0_1_135">
<rect width="20" height="24" fill="white"/>
</clipPath>
</defs>
</svg>
