<svg width="25" height="25" viewBox="0 0 25 25" fill="none" xmlns="http://www.w3.org/2000/svg">
<path fill-rule="evenodd" clip-rule="evenodd" d="M1.46094 12.5C1.46094 9.57246 2.6239 6.76481 4.69399 4.69472C6.76408 2.62463 9.57172 1.46167 12.4993 1.46167C15.4268 1.46167 18.2345 2.62463 20.3046 4.69472C22.3746 6.76481 23.5376 9.57246 23.5376 12.5C23.5376 15.4276 22.3746 18.2352 20.3046 20.3053C18.2345 22.3754 15.4268 23.5383 12.4993 23.5383C9.57172 23.5383 6.76408 22.3754 4.69399 20.3053C2.6239 18.2352 1.46094 15.4276 1.46094 12.5ZM12.4993 3.045C9.99165 3.045 7.58673 4.04115 5.81358 5.81431C4.04042 7.58747 3.04427 9.99238 3.04427 12.5C3.04427 15.0076 4.04042 17.4125 5.81358 19.1857C7.58673 20.9589 9.99165 21.955 12.4993 21.955C15.0069 21.955 17.4118 20.9589 19.185 19.1857C20.9581 17.4125 21.9543 15.0076 21.9543 12.5C21.9543 9.99238 20.9581 7.58747 19.185 5.81431C17.4118 4.04115 15.0069 3.045 12.4993 3.045ZM16.4226 8.57834C16.5788 8.73461 16.6666 8.94653 16.6666 9.1675C16.6666 9.38847 16.5788 9.6004 16.4226 9.75667L13.6776 12.5L16.4226 15.2433C16.5791 15.3998 16.667 15.612 16.667 15.8333C16.667 16.0546 16.5791 16.2669 16.4226 16.4233C16.2661 16.5798 16.0539 16.6677 15.8326 16.6677C15.6113 16.6677 15.3991 16.5798 15.2426 16.4233L12.4993 13.6783L9.75594 16.4233C9.67846 16.5008 9.58648 16.5623 9.48524 16.6042C9.38401 16.6461 9.27551 16.6677 9.16594 16.6677C9.05637 16.6677 8.94786 16.6461 8.84663 16.6042C8.7454 16.5623 8.65342 16.5008 8.57594 16.4233C8.49846 16.3459 8.437 16.2539 8.39507 16.1526C8.35313 16.0514 8.33155 15.9429 8.33155 15.8333C8.33155 15.7238 8.35313 15.6153 8.39507 15.514C8.437 15.4128 8.49846 15.3208 8.57594 15.2433L11.3209 12.5L8.57594 9.75667C8.41946 9.60019 8.33155 9.38796 8.33155 9.16667C8.33155 8.94538 8.41946 8.73315 8.57594 8.57667C8.73242 8.42019 8.94465 8.33228 9.16594 8.33228C9.38723 8.33228 9.59946 8.42019 9.75594 8.57667L12.4993 11.3217L15.2426 8.57667C15.32 8.49906 15.412 8.43749 15.5132 8.39548C15.6145 8.35347 15.723 8.33185 15.8326 8.33185C15.9422 8.33185 16.0508 8.35347 16.152 8.39548C16.2532 8.43749 16.3452 8.50073 16.4226 8.57834Z" fill="#4C739B"/>
</svg>
