<svg width="20" height="20" viewBox="0 0 20 20" fill="none" xmlns="http://www.w3.org/2000/svg">
<g id="Isolation_Mode" clip-path="url(#clip0_1_141)">
<path id="Vector" d="M17.0766 12.9234C15.9879 11.8347 14.6976 11.0282 13.2661 10.5444C14.7782 9.49597 15.7863 7.7621 15.7863 5.78629C15.7863 2.60081 13.1855 0 10 0C6.81452 0 4.21371 2.60081 4.21371 5.78629C4.21371 7.7621 5.20161 9.51613 6.73387 10.5444C5.32258 11.0282 4.03226 11.8347 2.92339 12.9234C1.02823 14.8185 0 17.3185 0 20H1.57258C1.57258 15.3427 5.3629 11.5524 10.0202 11.5524C14.6774 11.5524 18.4677 15.3427 18.4677 20H20.0403C20.0403 17.3185 18.9919 14.8185 17.1169 12.9234H17.0766ZM10 10C7.68145 10 5.78629 8.10484 5.78629 5.78629C5.78629 3.46774 7.68145 1.57258 10 1.57258C12.3185 1.57258 14.2137 3.46774 14.2137 5.78629C14.2137 8.10484 12.3185 10 10 10Z" fill="#D1D1D1"/>
</g>
<defs>
<clipPath id="clip0_1_141">
<rect width="20" height="20" fill="white"/>
</clipPath>
</defs>
</svg>
