<svg width="43" height="34" viewBox="0 0 43 34" fill="none" xmlns="http://www.w3.org/2000/svg">
<g id="Layer_1" clip-path="url(#clip0_1_784)">
<path id="Vector" d="M18.1938 0C22.216 0 26.2382 0 30.2526 0C31.0586 0 31.2464 0.193273 31.2464 1.00663C31.2464 8.36712 31.2464 15.7276 31.2464 23.0881C31.2464 23.9015 31.0586 24.0867 30.2526 24.0867C27.232 24.0867 24.2193 24.0867 21.1987 24.0867C20.8857 24.0867 20.6275 24.1431 20.3927 24.3847C19.9858 24.7954 19.4537 24.8678 18.9138 24.7712C18.7416 24.739 18.632 24.7712 18.499 24.9C17.8104 25.6087 17.1296 25.7215 16.2845 25.2463C16.081 25.1336 16.0341 25.19 15.9323 25.3591C15.3141 26.3657 14.2029 26.5348 13.3265 25.7376C13.1465 25.5765 13.0604 25.5765 12.8805 25.7376C12.0979 26.4462 11.1589 26.3979 10.4233 25.649C10.0555 25.2705 9.71904 24.8678 9.44515 24.4249C9.29647 24.1833 9.11649 24.0947 8.8426 24.0947C7.89574 24.1108 6.95671 24.0947 6.00985 24.0947C5.29774 24.0947 5.08646 23.8773 5.07864 23.1525C5.07864 21.3003 5.07081 19.4401 5.07864 17.5879C5.07864 17.1933 4.98473 16.9839 4.60912 16.8309C3.20057 16.2591 1.80766 15.631 0.406935 15.0512C0.0626223 14.9062 -0.023456 14.7532 0.13305 14.3989C0.633869 13.2875 0.352158 13.3842 1.43205 13.8351C3.56053 14.729 5.68901 15.6471 7.80184 16.5732C8.14615 16.7262 8.30266 16.6537 8.49047 16.3477C9.21822 15.1156 9.96162 13.8915 10.7207 12.6836C10.9163 12.3695 10.8694 12.2245 10.572 12.0313C7.17582 9.7442 3.75616 7.45713 0.328682 5.19422C-0.0312813 4.96068 -0.101709 4.79962 0.156526 4.41307C0.696471 3.61582 0.672995 3.59972 1.479 4.13927C2.56672 4.8721 3.66226 5.59687 4.7578 6.32165C4.83605 6.37802 4.95343 6.45855 5.01603 6.43439C5.14906 6.38607 5.08646 6.23306 5.08646 6.12032C5.08646 4.42918 5.08646 2.73804 5.08646 1.03884C5.09429 0.18522 5.27427 0 6.0881 0C10.126 0 14.1638 0 18.1938 0ZM29.8144 12.0635C29.8144 8.70535 29.8144 5.34723 29.8222 1.9891C29.8222 1.5784 29.7127 1.46566 29.3136 1.46566C26.9269 1.48176 24.5323 1.48176 22.1456 1.46566C21.7152 1.46566 21.6213 1.61061 21.6213 2.02132C21.637 3.88963 21.6291 5.75793 21.6213 7.6343C21.6213 8.31075 21.3944 8.54429 20.7527 8.54429C19.039 8.54429 17.3174 8.54429 15.6037 8.54429C14.9229 8.54429 14.7038 8.31881 14.7038 7.62624C14.7038 5.74183 14.6959 3.85741 14.7038 1.973C14.7038 1.5784 14.5864 1.47371 14.2108 1.47371C11.8084 1.48982 9.40602 1.48982 7.00366 1.47371C6.58892 1.47371 6.50284 1.62672 6.51066 2.01326C6.52632 3.6883 6.52632 5.37139 6.51066 7.04642C6.51066 7.38465 6.62022 7.57793 6.8941 7.76315C8.63132 8.90668 10.3529 10.0663 12.0823 11.2179C12.2544 11.3306 12.4266 11.4031 12.6379 11.4353C15.228 11.8058 17.8417 11.9427 20.4553 12.0313C21.3866 12.0635 22.1613 12.7319 22.3021 13.6258C22.4586 14.6324 21.9656 15.5424 21.0501 15.8726C20.2362 16.1705 19.3989 16.3316 18.5303 16.3316C17.9904 16.3316 17.9904 16.3316 18.2251 16.8148C18.632 17.6603 19.0624 18.4898 19.4459 19.3434C19.6024 19.6817 19.798 19.8105 20.1658 19.8105C22.6386 19.7944 25.1192 19.7944 27.592 19.8105C28.6328 19.8105 28.4763 19.6656 28.5154 20.7447C28.531 21.1795 28.3824 21.2923 27.9755 21.2923C25.6983 21.2762 23.429 21.2842 21.1518 21.2842C20.6771 21.2842 20.5336 21.5151 20.7214 21.9768C20.7527 22.0412 20.784 22.1137 20.7997 22.1862C20.8544 22.5727 21.0814 22.6532 21.4413 22.6532C24.0472 22.6371 26.653 22.6532 29.251 22.6532C29.6318 22.6532 29.8222 22.4466 29.8222 22.0332C29.8222 18.7234 29.8222 15.4055 29.8222 12.0957L29.8144 12.0635ZM9.28082 18.6509C9.23387 19.1502 9.31212 19.6011 9.35907 20.0521C9.55471 21.7594 10.2512 23.2331 11.378 24.4893C11.4797 24.6021 11.5971 24.6987 11.7536 24.6343C11.9179 24.5618 11.8788 24.3927 11.8866 24.2478C11.9101 23.7726 11.5502 23.5149 11.3154 23.2009C10.6033 22.2184 10.525 22.5324 11.4954 21.6949C11.7614 21.4694 11.9101 21.5097 12.1136 21.7755C12.7787 22.6613 13.4674 23.523 14.1482 24.3927C14.2499 24.5216 14.3516 24.7309 14.5551 24.6101C14.7507 24.4893 14.649 24.28 14.5942 24.127C14.3594 23.5069 14.0386 22.9512 13.5534 22.4841C12.7709 21.7271 12.7944 21.7191 13.5456 20.9541C13.7725 20.7205 13.9134 20.7205 14.1325 20.9541C14.9933 21.864 15.8697 22.7499 16.7383 23.6438C16.8401 23.7485 16.9418 23.8693 17.067 23.9176C17.2939 23.9981 17.4426 23.9015 17.38 23.6277C17.3487 23.5069 17.2626 23.3941 17.1922 23.2894C16.6601 22.5244 16.0497 21.8157 15.4785 21.0829C14.7116 20.1085 14.6568 20.4387 15.6037 19.577C15.8775 19.3193 16.0497 19.3837 16.261 19.6575C17.1296 20.7527 18.0138 21.8318 18.8903 22.919C18.9529 22.9995 19.0155 23.0801 19.0859 23.1525C19.1642 23.2331 19.2581 23.2653 19.3598 23.217C19.4615 23.1606 19.4772 23.064 19.4615 22.9512C19.4302 22.7257 19.3363 22.5324 19.2424 22.3311C18.2486 20.2937 17.2783 18.2402 16.261 16.2189C15.9088 15.5182 16.1045 14.7774 17.0748 14.8337C18.1704 14.8982 19.2737 14.8337 20.3458 14.4955C20.6197 14.4069 20.8936 14.2861 20.8466 13.9398C20.7997 13.5936 20.5179 13.4808 20.2049 13.4889C17.7008 13.5291 15.2124 13.2875 12.7318 12.9574C12.4422 12.9171 12.2623 13.0218 12.1058 13.2795C11.2919 14.6485 10.4703 16.0095 9.62513 17.3624C9.3669 17.7731 9.18692 18.1838 9.28082 18.6428V18.6509ZM20.2049 4.27617C20.2049 3.47892 20.1893 2.68972 20.2049 1.89247C20.2049 1.56229 20.0954 1.4576 19.7824 1.46566C18.6947 1.48176 17.6148 1.48176 16.527 1.46566C16.2219 1.46566 16.1358 1.5784 16.1358 1.87636C16.1436 3.47892 16.1436 5.08148 16.1358 6.68404C16.1358 6.97395 16.2375 7.07058 16.5114 7.07058C17.6069 7.06253 18.7103 7.06253 19.8058 7.07058C20.111 7.07058 20.2049 6.95784 20.1971 6.65988C20.1815 5.87068 20.1971 5.07342 20.1971 4.27617H20.2049ZM6.52632 20.1004C6.52632 20.8091 6.53414 21.5097 6.52632 22.2184C6.52632 22.5324 6.63587 22.6371 6.92541 22.621C7.2932 22.6049 7.66881 22.6049 8.0366 22.621C8.37309 22.6371 8.46699 22.5486 8.34178 22.1942C8.0053 21.2359 7.83314 20.2454 7.83314 19.2146C7.83314 18.0227 8.04442 18.3288 6.90976 17.8134C6.62022 17.6845 6.51067 17.7087 6.51849 18.0711C6.54197 18.7475 6.51849 19.424 6.51849 20.1004H6.52632Z" fill="#4C739B"/>
<path id="Vector_2" d="M38.7743 27.6219C37.5614 27.6219 36.3406 27.63 35.1277 27.6219C34.7991 27.6219 34.6739 27.7105 34.6817 28.0729C34.6973 29.1762 34.7052 30.2794 34.6817 31.3827C34.6739 31.7693 34.8538 31.8659 35.1668 31.89C36.8336 32.0108 38.5004 32.1316 40.1672 32.2605C40.981 32.3169 41.787 32.3893 42.6009 32.4457C42.9374 32.4699 43.0547 32.639 42.9921 32.9692C42.9765 33.0577 42.9608 33.1463 42.9452 33.2269C42.8435 34.0644 42.8356 34.0402 42.0062 33.9677C40.2455 33.8147 38.4769 33.6778 36.7163 33.5409C35.8868 33.4765 35.0651 33.4201 34.2356 33.3477C34.0009 33.3235 33.7035 33.3477 33.5548 33.1383C33.2966 32.792 33.0071 32.8725 32.6784 32.9611C31.5594 33.2591 30.4325 33.5409 29.3135 33.8308C28.2023 34.1127 27.1068 34.0644 26.0191 33.6939C23.1785 32.7115 20.3301 31.737 17.4817 30.7546C16.5661 30.4405 16.1044 29.8607 16.0966 29.0232C16.081 28.1212 16.5113 27.5414 17.4191 27.1871C18.5224 26.7522 19.6258 26.8327 20.7527 27.0743C21.7856 27.2998 22.8264 27.5011 23.8593 27.7266C24.1723 27.7991 24.3132 27.7266 24.3992 27.3884C24.5792 26.6717 25.0487 26.1804 25.753 26.0596C27.2476 25.81 28.7345 25.504 30.2526 25.4637C31.262 25.4315 32.2089 25.6811 33.101 26.1563C33.3123 26.269 33.4922 26.3576 33.7426 26.2207C33.8678 26.1482 34.0478 26.1724 34.2043 26.1724C36.9354 26.1724 39.6664 26.1724 42.3974 26.1643C42.82 26.1643 42.9765 26.2771 42.9608 26.728C42.9217 27.7749 43.0626 27.638 42.0609 27.6461C40.9732 27.6461 39.8855 27.6461 38.7978 27.6461L38.7743 27.6219ZM33.2497 29.5949C33.2497 29.1681 33.2497 28.7413 33.2497 28.3145C33.2497 28.1212 33.2027 27.9763 33.0384 27.8635C32.3341 27.3884 31.5829 27.0421 30.7377 26.9857C29.1961 26.8891 27.7093 27.3079 26.1912 27.485C25.9721 27.5092 25.8078 27.6139 25.8234 27.8796C25.8469 28.1615 26.0347 28.2501 26.2695 28.2501C26.6842 28.2581 27.099 28.2501 27.5137 28.2501C28.6406 28.2742 28.4762 28.0487 28.5075 29.2889C28.5075 29.611 28.4136 29.7399 28.0928 29.7238C27.0442 29.6755 26.0034 29.756 24.947 29.4822C23.3037 29.0473 21.6213 28.7655 19.9545 28.4433C19.2893 28.3145 18.6163 28.3064 17.9668 28.5641C17.779 28.6366 17.5599 28.693 17.5678 28.9587C17.5678 29.2003 17.7947 29.2406 17.9668 29.297C20.8387 30.2794 23.7106 31.2619 26.5825 32.2524C27.2633 32.486 27.9754 32.5343 28.6562 32.3813C30.0961 32.0592 31.5124 31.6565 32.9445 31.3022C33.187 31.2377 33.2653 31.1089 33.2575 30.8673C33.2497 30.4405 33.2575 30.0137 33.2575 29.5869L33.2497 29.5949Z" fill="#4C739B"/>
<path id="Vector_3" d="M25.7139 18.4334C24.9314 18.4334 24.1411 18.4334 23.3585 18.4334C23.0768 18.4334 22.9438 18.3529 22.9438 18.0308C22.9673 16.7342 22.8108 16.9678 23.9376 16.9597C25.2836 16.9436 26.6217 16.9678 27.9676 16.9517C28.3667 16.9517 28.531 17.0483 28.5154 17.4912C28.4763 18.5784 28.625 18.4254 27.5998 18.4334C26.9738 18.4334 26.34 18.4334 25.7139 18.4334Z" fill="#4C739B"/>
</g>
<defs>
<clipPath id="clip0_1_784">
<rect width="43" height="34" fill="white"/>
</clipPath>
</defs>
</svg>
