<svg width="40" height="40" viewBox="0 0 40 40" fill="none" xmlns="http://www.w3.org/2000/svg">
<g id="Layer_1" clip-path="url(#clip0_1_802)">
<path id="Vector" d="M24.8325 39.9922C24.3465 39.6947 24.1819 39.2563 24.1897 38.7006C24.2054 37.5186 24.1897 36.3288 24.1897 35.1468C24.1897 35.0059 24.1897 34.8571 24.221 34.7162C24.2994 34.3562 24.5424 34.1683 24.8795 34.1839C25.2009 34.1996 25.4439 34.4344 25.4674 34.8023C25.4909 35.2563 25.4752 35.7104 25.4752 36.1722C25.4752 36.9158 25.4909 37.6595 25.4752 38.3953C25.4752 38.7084 25.5771 38.8023 25.8828 38.7945C26.698 38.771 26.6196 38.8728 26.6196 38.0587C26.6196 25.9961 26.6196 13.9256 26.6196 1.863C26.6196 1.65165 26.7372 1.36202 26.5099 1.25243C26.2434 1.12719 25.922 1.19764 25.6241 1.22112C25.5144 1.22895 25.4909 1.33071 25.4909 1.43247C25.4909 1.57337 25.4909 1.7221 25.4909 1.863C25.4909 11.7417 25.4909 21.6203 25.4909 31.499C25.4909 31.6556 25.4909 31.8121 25.4909 31.9687C25.4595 32.3601 25.2322 32.5949 24.8795 32.6027C24.5111 32.6106 24.2446 32.3914 24.221 31.9843C24.1975 31.6086 24.2132 31.2329 24.2054 30.8493C24.2054 30.1918 24.2054 29.5342 24.2054 28.7828C23.8526 29.0724 23.5704 29.3229 23.2804 29.5499C21.0229 31.3033 18.4754 32.1957 15.6065 32.1331C11.5305 32.047 8.30884 30.3092 5.88673 27.0607C5.70645 26.818 5.51048 26.7084 5.20478 26.7084C3.99765 26.7241 2.78268 26.7084 1.57554 26.7084C1.35607 26.7084 1.13659 26.6927 0.917108 26.6614C0.360572 26.5753 0 26.1839 0 25.6203C0 21.8552 0 18.0978 0 14.3327C0 13.7456 0.32138 13.3933 0.917108 13.3151C1.59122 13.2211 2.26533 13.2837 2.94729 13.2759C3.66059 13.2681 4.38174 13.2524 5.09504 13.2759C5.47129 13.2916 5.71429 13.1742 5.93376 12.861C7.06251 11.272 8.51264 10.0509 10.245 9.1585C10.3625 9.09588 10.4801 9.03325 10.5977 8.99411C10.9269 8.89235 11.1934 8.99411 11.358 9.29157C11.5305 9.59685 11.4442 9.87865 11.1699 10.0822C11.0288 10.1918 10.8564 10.27 10.6996 10.3561C9.48462 10.9824 8.44209 11.8434 7.54066 12.861C7.48579 12.9158 7.43876 12.9785 7.39957 13.0411C7.36821 13.0802 7.3447 13.1272 7.31334 13.182C7.45444 13.3151 7.61121 13.2603 7.76014 13.2603C9.95493 13.2603 12.1576 13.2603 14.3523 13.2603C14.5875 13.2603 14.8227 13.2759 15.05 13.3229C15.5281 13.4325 15.8103 13.8552 15.8181 14.4579C15.826 15.3425 15.8338 16.227 15.8181 17.1115C15.8181 17.4403 15.9279 17.5342 16.2493 17.5342C17.1742 17.5342 17.1899 17.5342 17.1821 16.6184C17.1821 16.1644 17.3467 15.8356 17.7543 15.6399C18.1775 15.4364 18.5616 15.5225 18.9065 15.8278C20.1685 16.9393 21.4305 18.043 22.6847 19.1624C23.2256 19.6399 23.2256 20.3131 22.6847 20.7984C21.4305 21.9178 20.1685 23.0215 18.9144 24.1331C18.5695 24.4305 18.1854 24.5323 17.7621 24.3288C17.3545 24.1331 17.1821 23.8043 17.1899 23.3503C17.1899 22.4109 17.182 22.4188 16.2257 22.4266C15.9122 22.4266 15.826 22.544 15.826 22.8415C15.8417 23.6634 15.826 24.4853 15.826 25.2994C15.826 26.27 15.3949 26.6927 14.4072 26.7006C12.2124 26.7006 10.0098 26.7006 7.81501 26.7006C7.65824 26.7006 7.50931 26.7006 7.35254 26.7006C7.32902 26.9041 7.46228 26.998 7.5485 27.0998C9.563 29.3699 12.0557 30.6458 15.097 30.8336C18.2794 31.0293 21.0229 29.9961 23.3431 27.8278C23.3902 27.7808 23.4294 27.7338 23.4842 27.6947C24.0878 27.2094 24.2524 26.5988 24.2446 25.816C24.2054 21.7534 24.221 17.6908 24.2367 13.636C24.2367 13.2524 24.1191 12.9785 23.8683 12.7045C22.0263 10.6849 19.7531 9.51858 17.0566 9.18198C15.9828 9.04891 14.901 9.09588 13.835 9.28374C13.7096 9.30723 13.5763 9.32288 13.4509 9.33071C13.0903 9.33071 12.8317 9.12719 12.7846 8.80625C12.7376 8.50096 12.9336 8.18785 13.2863 8.1174C13.7566 8.01564 14.2269 7.92171 14.7051 7.8904C17.6916 7.67905 20.435 8.36789 22.8807 10.1291C23.3196 10.4501 23.7351 10.8023 24.174 11.1624C24.2681 11.0137 24.2289 10.8571 24.2289 10.7084C24.2289 7.56946 24.2289 4.43834 24.2289 1.2994C24.2289 0.743625 24.3857 0.305268 24.8716 0.0078125H27.2937C27.7641 0.281785 27.9679 0.68883 27.9443 1.23678C27.9208 1.88648 27.9443 2.53619 27.9365 3.18589C27.9287 3.49118 28.0384 3.59294 28.3441 3.58511C30.8995 3.57728 33.4627 3.57728 36.018 3.58511C36.3081 3.58511 36.41 3.49118 36.4021 3.20155C36.3864 2.52836 36.4178 1.84734 36.3943 1.17415C36.3786 0.634036 36.5667 0.242646 37.0527 0.0078125C37.9777 0.0078125 38.9026 0.0078125 39.8197 0.0078125C39.9843 0.0078125 40.047 0.0391237 40.0157 0.211335C40.0078 0.258302 40.0157 0.313096 40.0157 0.367891C40.0157 13.4638 40.0157 26.5597 40.0157 39.6477C40.0157 39.9374 39.953 40.0156 39.6551 40.0078C38.785 39.9843 37.915 40 37.037 40C36.5432 39.7652 36.3551 39.3738 36.3786 38.8336C36.4021 38.1605 36.3786 37.4794 36.3864 36.8063C36.3864 36.5166 36.2924 36.4227 36.0024 36.4227C33.4313 36.4227 30.8603 36.4227 28.2892 36.4227C28.0227 36.4227 27.9208 36.5088 27.9208 36.7828C27.9365 37.4481 27.9052 38.1057 27.9287 38.771C27.9522 39.319 27.7484 39.726 27.2781 40H24.856L24.8325 39.9922ZM1.20713 19.9608C1.20713 21.636 1.20713 23.319 1.20713 24.9941C1.20713 25.3307 1.29336 25.4481 1.64609 25.4481C4.18577 25.4325 6.71762 25.4325 9.2573 25.4481C9.57868 25.4481 9.68842 25.3542 9.68058 25.0254C9.6649 23.5929 9.68058 22.1605 9.68058 20.728C9.68058 18.818 9.68058 16.9002 9.68058 14.9902C9.68058 14.6458 9.57084 14.5362 9.23378 14.5518C8.72428 14.5753 8.22261 14.5675 7.71311 14.5518C7.42308 14.544 7.27415 14.6145 7.29767 14.9432C7.32118 15.3033 7.30551 15.6712 7.29767 16.0391C7.28983 16.6653 6.98413 16.9785 6.36488 16.9785C5.76916 16.9785 5.16559 16.9785 4.56986 16.9785C3.93494 16.9785 3.61356 16.6653 3.59788 16.0235C3.59005 15.6556 3.58221 15.2955 3.59788 14.9276C3.61356 14.6301 3.48814 14.544 3.20596 14.5518C2.68861 14.5675 2.16343 14.5753 1.64609 14.5518C1.29336 14.5362 1.20713 14.6693 1.20713 15.0059C1.22281 16.6575 1.20713 18.3092 1.20713 19.9608ZM38.7772 20C38.7772 13.9334 38.7772 7.87474 38.7772 1.8082C38.7772 1.67513 38.7772 1.54989 38.7772 1.41681C38.7772 1.33854 38.7537 1.2446 38.6674 1.22895C38.3461 1.18198 38.0012 1.12719 37.7033 1.2446C37.4603 1.33854 37.5936 1.64382 37.5936 1.84734C37.5936 13.9491 37.5936 26.043 37.5936 38.1448C37.5936 38.2779 37.5936 38.4031 37.5936 38.5362C37.5936 38.6145 37.5936 38.7241 37.672 38.7397C38.0012 38.8258 38.3539 38.8415 38.6674 38.7397C38.8869 38.6693 38.7772 38.3953 38.7772 38.2153C38.7772 32.1409 38.7772 26.0665 38.7772 19.9843V20ZM14.5091 20.0391C14.5091 18.3483 14.5091 16.6575 14.5091 14.9667C14.5091 14.6614 14.4229 14.5518 14.1093 14.5597C13.1844 14.5753 12.2595 14.5753 11.3423 14.5597C11.0288 14.5597 10.9426 14.6771 10.9426 14.9745C10.9426 18.3327 10.9426 21.6908 10.9426 25.0489C10.9426 25.3542 11.0366 25.4638 11.3502 25.456C12.2438 25.4403 13.1452 25.4325 14.0388 25.456C14.4307 25.4716 14.517 25.3229 14.5091 24.9628C14.4934 23.3268 14.5091 21.683 14.5091 20.047V20.0391ZM29.2769 16.9785C29.2769 16.9785 29.2455 17.0411 29.222 17.0724C29.2691 17.0959 29.3239 17.1037 29.3631 17.135C31.5893 18.8023 33.8154 20.4775 36.0415 22.1448C36.1121 22.1996 36.1905 22.2857 36.2845 22.2387C36.3943 22.1839 36.3551 22.0509 36.3551 21.9569C36.3551 20.4227 36.3551 18.8884 36.3551 17.3542C36.3551 17.0567 36.2532 16.9706 35.9632 16.9785C35.4301 16.9941 34.8971 16.9863 34.3641 16.9785C33.933 16.9785 33.6586 16.728 33.6508 16.3679C33.643 16.0313 33.8938 15.7886 34.3092 15.7417C34.466 15.726 34.6228 15.7182 34.7795 15.7182C35.1558 15.7182 35.532 15.7025 35.9083 15.7182C36.214 15.726 36.3786 15.6243 36.3472 15.2955C36.3394 15.2016 36.3394 15.1154 36.3472 15.0215C36.3943 14.6614 36.2532 14.5518 35.8926 14.5597C33.5881 14.5753 31.2914 14.5597 28.9869 14.5597C28.7125 14.5597 28.4382 14.5597 28.1638 14.5597C28.0384 14.5597 27.9443 14.5832 27.8973 14.7319C27.7014 15.4129 27.9208 15.7104 28.6185 15.7104C29.4258 15.7104 30.2332 15.7104 31.0406 15.7104C31.2365 15.7104 31.4325 15.7182 31.6206 15.7495C31.9655 15.8043 32.1928 16.0861 32.1693 16.3914C32.1458 16.7123 31.895 16.9628 31.5422 16.9628C30.7819 16.9706 30.0216 16.9628 29.2612 16.9628L29.2769 16.9785ZM34.9441 22.9745C34.9441 22.8963 34.8814 22.8571 34.8344 22.8258C32.6318 21.1742 30.4292 19.5225 28.2265 17.8708C28.1481 17.816 28.0698 17.6908 27.96 17.7612C27.866 17.8239 27.913 17.9569 27.913 18.0509C27.913 19.5616 27.9208 21.0646 27.9052 22.5753C27.9052 22.9511 28.0384 23.0293 28.3833 23.0293C30.4605 23.0137 32.5377 23.0293 34.6228 23.0215C34.7325 23.0215 34.8501 23.0607 34.952 22.9824L34.9441 22.9745ZM29.2377 32.6653C29.3788 32.6888 29.418 32.7045 29.4493 32.7045C31.6363 32.7045 33.8154 32.7045 36.0024 32.7045C36.3237 32.7045 36.3551 32.5479 36.3551 32.2896C36.3551 30.7945 36.3551 29.2994 36.3551 27.7965C36.3551 27.6712 36.4178 27.499 36.3002 27.4364C36.1748 27.3659 36.0729 27.5303 35.9788 27.6008C34.3955 28.7828 32.8121 29.9726 31.2365 31.1624C30.5938 31.6477 29.951 32.1252 29.2455 32.6575L29.2377 32.6653ZM34.9598 7.37376C34.9598 7.37376 34.9363 7.31897 34.9206 7.29548C32.6867 7.29548 30.4527 7.29548 28.2187 7.29548C27.8973 7.29548 27.9052 7.48335 27.9052 7.71036C27.9052 9.22112 27.9052 10.7241 27.9052 12.2348C27.9052 12.3444 27.8424 12.501 27.9679 12.5558C28.0854 12.6106 28.1717 12.4697 28.2579 12.407C29.5826 11.4207 30.8995 10.4266 32.2163 9.4403C33.1256 8.75928 34.0427 8.07043 34.952 7.38942L34.9598 7.37376ZM29.2612 13.2446C29.4023 13.2681 29.4337 13.2837 29.4729 13.2837C31.6441 13.2837 33.8154 13.2837 35.9867 13.2837C36.3159 13.2837 36.3629 13.1272 36.3629 12.8454C36.3629 11.3268 36.3629 9.80038 36.3629 8.28179C36.3629 8.18785 36.41 8.07043 36.2689 7.98433C33.9643 9.71427 31.652 11.452 29.2691 13.2368L29.2612 13.2446ZM34.9833 26.7632C34.8109 26.7319 34.7639 26.7162 34.7168 26.7162C32.5769 26.7162 30.4292 26.7162 28.2892 26.7162C27.96 26.7162 27.913 26.8806 27.913 27.1546C27.913 28.6732 27.913 30.1996 27.913 31.7182C27.913 31.8121 27.866 31.9295 27.9992 32.0156C30.2959 30.2935 32.6004 28.5636 34.9833 26.771V26.7632ZM18.3892 17.1115C18.3892 17.409 18.3892 17.5812 18.3892 17.7456C18.3892 18.5284 18.107 18.818 17.3075 18.8336C16.9547 18.8336 16.602 18.8493 16.2571 18.8336C15.9279 18.818 15.779 18.9119 15.7946 19.272C15.8181 19.7652 15.8181 20.2583 15.7946 20.7515C15.779 21.088 15.92 21.1742 16.2336 21.1742C16.7117 21.1742 17.1977 21.1194 17.6759 21.2055C18.1462 21.2916 18.3657 21.5655 18.3892 22.0352C18.397 22.2857 18.35 22.544 18.4284 22.7945C18.4832 22.7789 18.5146 22.771 18.5303 22.7554C19.5101 21.8943 20.4821 21.0333 21.4619 20.18C21.65 20.0156 21.5638 19.8982 21.4227 19.773C20.9602 19.3738 20.5056 18.9589 20.051 18.5597C19.5258 18.0978 19.0006 17.6438 18.3892 17.1037V17.1115ZM32.1223 6.01173C32.2007 6.01173 32.279 6.01173 32.3574 6.01173C33.5646 6.01173 34.7717 6.01173 35.9788 6.01173C36.261 6.01173 36.3943 5.91779 36.3629 5.62816C36.3551 5.54989 36.3629 5.47161 36.3629 5.39333C36.3629 4.86887 36.3629 4.86887 35.8534 4.86887C33.4392 4.86887 31.017 4.86887 28.6028 4.86887C27.8503 4.86887 27.9287 4.78276 27.8973 5.55771C27.8816 5.93345 28.0306 6.01955 28.3755 6.01173C29.6218 5.99607 30.8681 6.01173 32.1144 6.01173H32.1223ZM32.1223 35.1311C33.2824 35.1311 34.4346 35.1311 35.5947 35.1311C36.4335 35.1311 36.3551 35.2955 36.3629 34.3248C36.3629 34.0978 36.2767 33.9961 36.0415 33.9961C33.4392 33.9961 30.8446 33.9961 28.2422 33.9961C27.9914 33.9961 27.8816 34.09 27.9052 34.3405C27.913 34.4579 27.9208 34.5753 27.9052 34.6927C27.8581 35.0293 27.9992 35.1468 28.3441 35.1389C29.6061 35.1233 30.8681 35.1389 32.1223 35.1389V35.1311ZM32.1066 25.4403C33.3764 25.4403 34.6541 25.4403 35.924 25.4403C36.0572 25.4403 36.261 25.5029 36.3081 25.3464C36.4021 25.0489 36.41 24.7201 36.3081 24.4305C36.2297 24.2113 35.9632 24.2974 35.7829 24.2974C33.4078 24.2974 31.0249 24.2974 28.6498 24.2974C27.8973 24.2974 27.913 24.2974 27.9052 25.0333C27.9052 25.3542 27.9992 25.4638 28.3284 25.456C29.5904 25.4403 30.8524 25.456 32.1144 25.456L32.1066 25.4403ZM5.44778 14.5597C5.0663 14.5597 4.87556 14.7371 4.87556 15.092C4.87556 15.4468 5.05585 15.653 5.41642 15.7104C5.77699 15.7678 5.97557 15.5773 6.01215 15.1389C6.04873 14.7006 5.8606 14.5049 5.44778 14.5518V14.5597Z" fill="#4C739B"/>
<path id="Vector_2" d="M12.7376 24.2426C12.3848 24.2426 12.1027 23.9765 12.1027 23.6399C12.1027 23.3033 12.3848 23.0215 12.7219 23.0215C13.0746 23.0215 13.349 23.2876 13.3568 23.6321C13.3568 23.9765 13.0903 24.2426 12.7297 24.2426H12.7376Z" fill="#4C739B"/>
</g>
<defs>
<clipPath id="clip0_1_802">
<rect width="40" height="40" fill="white"/>
</clipPath>
</defs>
</svg>
