<svg width="43" height="34" viewBox="0 0 43 34" fill="none" xmlns="http://www.w3.org/2000/svg">
<g id="Layer_1" clip-path="url(#clip0_1_777)">
<path id="Vector" d="M43 26.7478C42.826 27.0075 42.5835 27.1532 42.3038 27.2735C37.1005 29.4713 31.8972 31.6692 26.694 33.8734C26.2899 34.0444 25.9355 34.0444 25.5315 33.8734C20.3593 31.6755 15.1809 29.484 10.0025 27.2988C9.28135 26.9948 9.16323 26.8175 9.16323 26.0131C9.16323 25.3037 9.16323 24.588 9.16323 23.8786C9.16323 23.4817 8.96016 23.2832 8.55401 23.2832C6.52741 23.2832 4.50081 23.2832 2.46799 23.2832C1.93336 23.2832 1.62875 23.0235 1.59145 22.5675C1.55415 22.0481 1.88363 21.6934 2.44312 21.6934C3.60562 21.6871 4.7619 21.6934 5.9244 21.6934C6.84445 21.6934 7.77072 21.6807 8.69077 21.6934C9.02647 21.6934 9.17567 21.6047 9.16323 21.2374C9.13837 20.68 9.1508 20.1289 9.16323 19.5716C9.16945 19.2802 9.06377 19.1662 8.77159 19.1725C7.97587 19.1852 7.18015 19.1725 6.37821 19.1725C6.04252 19.1725 5.78764 19.0205 5.63222 18.7165C5.48924 18.4315 5.53276 18.1655 5.70682 17.9121C5.87467 17.6714 6.1109 17.5827 6.39686 17.5827C7.18015 17.5827 7.96344 17.5701 8.74672 17.5891C9.09485 17.5954 9.18188 17.4497 9.16945 17.133C9.1508 16.6073 9.14458 16.0753 9.16945 15.5496C9.1881 15.1696 9.05134 15.0619 8.68456 15.0619C6.21036 15.0745 3.73617 15.0619 1.25576 15.0745C0.951146 15.0745 0.677617 14.9985 0.416521 14.8592C0.118126 14.7009 -0.0310717 14.4412 1.11512e-05 14.0865C0.031094 13.7318 0.217591 13.5101 0.540853 13.4024C0.770866 13.3264 1.0071 13.3201 1.24332 13.3201C3.71752 13.3201 6.19171 13.3201 8.67212 13.3201C9.24405 13.3201 9.25027 13.3201 9.25027 12.7247C9.25027 10.9892 9.25027 9.24742 9.25027 7.51195C9.25027 6.91024 9.34351 6.7899 9.89679 6.56188C15.1001 4.41471 20.2971 2.28655 25.4942 0.139377C25.9355 -0.0443042 26.3334 -0.0569718 26.781 0.139377C32.0278 2.33722 37.287 4.52239 42.54 6.70756C42.7141 6.77723 42.8633 6.87857 43 6.99891V26.7541V26.7478ZM41.4832 17.2977H41.4645C41.4645 14.5932 41.4645 11.8823 41.4645 9.17775C41.4645 8.78928 41.2946 8.66682 40.9548 8.81039C36.4291 10.7295 31.8972 12.655 27.3653 14.5678C27.0296 14.7072 26.9053 14.8782 26.9053 15.2519C26.9178 20.68 26.9115 26.1081 26.9115 31.5362C26.9115 32.0302 26.9115 32.0365 27.3653 31.8465C31.9221 29.921 36.4726 27.9829 41.0356 26.0637C41.3713 25.9244 41.4956 25.7407 41.4894 25.367C41.477 22.6751 41.4832 19.9833 41.4832 17.2914V17.2977ZM25.3387 23.4162C25.3387 20.7243 25.3325 18.0261 25.345 15.3342C25.345 14.9162 25.2331 14.7072 24.8414 14.5425C22.964 13.7698 21.099 12.959 19.2216 12.1673C16.5485 11.0399 13.8754 9.91248 11.2023 8.78505C10.9785 8.69005 10.7795 8.5697 10.7795 8.99407C10.792 10.3305 10.792 11.6733 10.7795 13.0097C10.7795 13.3137 10.9101 13.4087 11.1836 13.4024C11.5317 13.4024 11.8861 13.3961 12.228 13.4404C12.744 13.5101 12.9926 13.8204 12.9678 14.2955C12.9429 14.7262 12.6383 15.0175 12.1472 15.0429C11.8115 15.0619 11.4758 15.0619 11.1401 15.0429C10.8666 15.0302 10.7671 15.1442 10.7733 15.4229C10.7858 15.9803 10.792 16.5377 10.7733 17.0887C10.7609 17.4371 10.8728 17.5637 11.2271 17.5574C12.1658 17.5384 13.0983 17.5511 14.037 17.5511C15.2803 17.5511 16.5299 17.5511 17.7732 17.5574C18.2394 17.5574 18.5627 17.8741 18.5813 18.3111C18.6062 18.7418 18.2705 19.1029 17.798 19.1472C17.6613 19.1599 17.5183 19.1535 17.3815 19.1535C15.3239 19.1535 13.2662 19.1535 11.2147 19.1535C10.8852 19.1535 10.7671 19.2612 10.7795 19.5969C10.7982 20.1543 10.7982 20.7117 10.7795 21.2627C10.7671 21.5857 10.8977 21.6807 11.2023 21.6744C12.0291 21.6617 12.8497 21.6681 13.6765 21.6744C14.2484 21.6744 14.5779 21.9594 14.5903 22.4471C14.6027 22.9475 14.2608 23.2642 13.6765 23.2642C12.8497 23.2642 12.0229 23.2769 11.2023 23.2642C10.8977 23.2642 10.7733 23.3529 10.7858 23.6759C10.8044 24.2459 10.8106 24.816 10.7858 25.386C10.7671 25.7407 10.8914 25.9181 11.2147 26.0574C15.7714 27.9829 20.3282 29.9147 24.8849 31.8465C25.3387 32.0365 25.345 32.0302 25.345 31.5362C25.345 28.8253 25.345 26.1207 25.345 23.4099L25.3387 23.4162ZM32.0775 4.10435C31.8661 4.00935 31.748 3.94601 31.6237 3.89534C29.9514 3.21128 28.273 2.5399 26.6069 1.84318C26.2712 1.70383 25.979 1.71017 25.6434 1.84318C21.2793 3.63565 16.9091 5.42179 12.5388 7.20793C12.4269 7.25227 12.2902 7.2586 12.2094 7.41695C12.3026 7.46762 12.3958 7.52462 12.4953 7.56262C14.2857 8.32268 16.0823 9.07641 17.8726 9.85547C18.1959 9.99482 18.4632 9.98848 18.7803 9.85547C22.9827 8.03133 27.1913 6.21985 31.3999 4.40838C31.5988 4.3197 31.7978 4.23103 32.0837 4.10435H32.0775ZM40.1466 7.41695C39.9352 7.32194 39.842 7.26494 39.7363 7.22693C38.0268 6.52388 36.311 5.82716 34.6076 5.11143C34.3217 4.99109 34.0917 5.00376 33.8119 5.1241C29.5038 6.99258 25.1958 8.84839 20.8877 10.7169C20.7571 10.7739 20.5831 10.7802 20.5085 10.9702C20.6577 11.0399 20.7944 11.1096 20.9312 11.1666C22.5289 11.8506 24.1327 12.522 25.7242 13.2187C26.0163 13.3454 26.265 13.3454 26.5572 13.2187C30.2933 11.6163 34.0295 10.0265 37.7719 8.43669C38.5303 8.11367 39.2825 7.78431 40.1404 7.41695H40.1466Z" fill="#4C739B"/>
<path id="Vector_2" d="M31.1388 27.3178C31.1388 26.5894 31.7294 25.9497 32.3759 25.9687C33.0038 25.9877 33.6192 26.6717 33.613 27.3494C33.6006 28.0588 32.9975 28.6732 32.3324 28.6606C31.6921 28.6479 31.1388 28.0208 31.1388 27.3178Z" fill="#4C739B"/>
<path id="Vector_3" d="M30.4363 28.4579C30.4363 29.1799 29.8892 29.769 29.2178 29.7816C28.5713 29.788 27.9497 29.1166 27.9621 28.4325C27.9745 27.7612 28.59 27.0961 29.1992 27.0898C29.8395 27.0834 30.4363 27.7422 30.4301 28.4642L30.4363 28.4579Z" fill="#4C739B"/>
</g>
<defs>
<clipPath id="clip0_1_777">
<rect width="43" height="34" fill="white"/>
</clipPath>
</defs>
</svg>
