<svg width="58" height="52" viewBox="0 0 58 52" fill="none" xmlns="http://www.w3.org/2000/svg">
<g id="Vector">
<mask id="path-1-inside-1_1_819" fill="white">
<path d="M28.9859 51.9906C19.9818 51.9906 10.9778 51.9906 1.96435 51.9906C1.72938 51.9906 1.49441 51.9906 1.25944 51.9906C0.328958 51.9436 0 51.6056 0 50.6664C0 45.9989 0 41.3314 0 36.6733C0 36.0816 0 35.4994 0 34.9077C0.0093988 34.0719 0.347756 33.7338 1.18425 33.7338C3.59974 33.7338 6.01523 33.7338 8.42133 33.7338C9.01032 33.7338 9.30481 33.4301 9.30481 32.8228C9.30481 32.3345 9.28601 31.8461 9.30481 31.3484C9.33301 30.8976 9.17323 30.7192 8.70329 30.7286C7.44385 30.7567 6.19381 30.7379 4.93437 30.7286C3.96629 30.7286 3.63734 30.3905 3.63734 29.4138C3.63734 21.2151 3.63734 13.0258 3.63734 4.82716C3.63734 3.87863 3.98509 3.52176 4.95317 3.51237C6.03403 3.50298 7.11489 3.50298 8.18636 3.51237C8.51531 3.51237 8.72209 3.41846 8.86307 3.08976C9.17323 2.34784 9.75595 1.9534 10.5643 1.97219C10.9778 1.97219 11.0906 1.77497 11.0436 1.42749C10.9496 0.47896 11.4007 0 12.5192 0C13.9478 0.00939137 15.3858 0 16.8145 0C17.9799 0 18.2713 0.281741 18.3089 1.44627C18.3183 1.82193 18.4404 1.97219 18.8258 1.9628C19.6153 1.9628 20.1792 2.35723 20.48 3.07098C20.6304 3.43724 20.8559 3.51237 21.2037 3.51237C22.247 3.50298 23.2808 3.51237 24.3241 3.51237C25.3956 3.51237 25.7433 3.85985 25.7433 4.92108C25.7433 8.74336 25.7433 12.5656 25.7433 16.3879C25.7433 17.0516 26.066 17.3834 26.7114 17.3834C33.4033 17.3834 40.0953 17.3834 46.7872 17.3834C48.5166 17.3834 48.6952 17.5619 48.6952 19.318C48.6952 23.8447 48.6952 28.3713 48.6952 32.9073C48.6952 33.452 48.9615 33.7244 49.4941 33.7244C51.9096 33.7244 54.3251 33.7244 56.7312 33.7244C57.6804 33.7244 58.0094 34.0437 58.0094 34.9922C58.0094 40.2232 58.0094 45.4636 58.0094 50.6946C58.0094 51.5868 57.671 51.9343 56.7782 51.9812C56.5432 51.9906 56.3082 51.9812 56.0732 51.9812C47.0504 51.9812 38.0182 51.9812 28.9953 51.9812L28.9859 51.9906ZM5.60169 17.0829C5.60169 20.708 5.60169 24.333 5.60169 27.9675C5.60169 28.5122 5.86798 28.7845 6.40058 28.7845C11.9177 28.7845 17.4254 28.7845 22.9425 28.7845C23.5064 28.7845 23.7884 28.4903 23.7884 27.9018C23.7884 20.9427 23.7884 13.9837 23.7884 7.02474C23.7884 5.97917 23.262 5.45638 22.2094 5.45638C21.1567 5.45638 20.6429 5.93221 20.668 6.88387C20.668 6.88387 20.668 6.92144 20.668 6.94022C20.6116 7.66336 20.2638 8.01084 19.5495 8.02962C18.9198 8.03901 18.2901 8.02962 17.6697 8.02962C15.0757 8.02962 12.491 8.02962 9.89694 8.02962C9.10744 8.02962 8.75028 7.66336 8.73149 6.88387C8.73149 6.57396 8.71269 6.25465 8.73149 5.94474C8.75028 5.58786 8.5999 5.44699 8.24275 5.45638C7.61303 5.46578 6.98331 5.49395 6.36299 5.45638C5.76147 5.40943 5.59229 5.61604 5.60169 6.21708C5.62988 9.84215 5.61108 13.4672 5.61108 17.1017L5.60169 17.0829ZM38.3659 33.7244C40.9506 33.7244 43.5446 33.7244 46.1293 33.7244C46.5711 33.7244 46.7496 33.6117 46.7496 33.1327C46.7308 28.7282 46.7402 24.3142 46.7496 19.9097C46.7496 19.4871 46.6368 19.3086 46.1857 19.318C44.8887 19.3368 43.601 19.3368 42.304 19.318C41.8435 19.318 41.7401 19.5059 41.7495 19.9191C41.7683 20.9615 41.7589 21.9946 41.7495 23.037C41.7495 23.7977 41.4017 24.2109 40.6686 24.2297C39.1178 24.2579 37.567 24.2579 36.0256 24.2297C35.2925 24.2109 34.9729 23.8353 34.9729 23.1028C34.9729 22.0415 34.9541 20.9897 34.9729 19.9285C34.9823 19.4495 34.8132 19.318 34.3526 19.3274C33.1214 19.3462 31.8807 19.365 30.6495 19.3274C30.0856 19.3087 29.9634 19.5247 29.9634 20.0412C29.9822 24.3706 29.9822 28.7 29.9634 33.0294C29.9634 33.6211 30.1607 33.7432 30.7059 33.7432C33.253 33.715 35.8 33.7338 38.3565 33.7338L38.3659 33.7244ZM10.2635 49.9902C12.8294 49.9902 15.4046 49.9902 17.9705 49.9902C18.4216 49.9902 18.6566 49.8775 18.6566 49.3704C18.6472 44.994 18.6472 40.6271 18.6566 36.2507C18.6566 35.8281 18.5062 35.659 18.0739 35.6684C16.8145 35.6872 15.5644 35.6872 14.305 35.6684C13.8726 35.6684 13.7129 35.8093 13.7222 36.2413C13.741 37.218 13.7316 38.2041 13.7222 39.1808C13.7222 40.1669 13.4027 40.4956 12.4252 40.4956C11.053 40.4956 9.68077 40.4956 8.30854 40.4956C7.20888 40.4956 6.91752 40.2232 6.87992 39.115C6.85173 38.2135 6.85173 37.3119 6.87992 36.4103C6.89872 35.8656 6.74834 35.6308 6.15621 35.6496C4.98136 35.6872 3.79712 35.6872 2.62227 35.6496C2.05834 35.6308 1.92675 35.8375 1.93615 36.3634C1.95495 40.6552 1.95495 44.9471 1.93615 49.2483C1.93615 49.8682 2.16172 49.9996 2.72565 49.9902C5.23513 49.9621 7.74461 49.9809 10.2635 49.9809V49.9902ZM47.7271 49.9902C50.2742 49.9902 52.8307 49.9809 55.3777 49.9902C55.8759 49.9902 56.0638 49.8494 56.0638 49.3235C56.0451 44.9753 56.0451 40.6177 56.0638 36.2695C56.0638 35.8093 55.9229 35.6496 55.4529 35.659C54.2405 35.6872 53.0186 35.6872 51.8062 35.659C51.2893 35.6496 51.1107 35.8187 51.1201 36.3352C51.1389 37.3776 51.1389 38.4107 51.0825 39.4531C51.0449 40.2138 50.6971 40.4956 49.9452 40.4956C48.4508 40.4956 46.9658 40.4956 45.4714 40.4956C44.6349 40.4956 44.2872 40.1481 44.2778 39.3217C44.2684 38.345 44.2402 37.3589 44.2778 36.3822C44.3059 35.7999 44.0898 35.6496 43.5352 35.6684C42.3792 35.706 41.2231 35.706 40.0671 35.6684C39.4844 35.6496 39.334 35.8656 39.334 36.4197C39.3528 40.6928 39.334 44.9659 39.3434 49.2389C39.3434 49.9621 39.3716 49.9902 40.1235 49.9902C42.6518 49.9902 45.1894 49.9902 47.7177 49.9902H47.7271ZM28.9953 49.9902C31.5612 49.9902 34.1364 49.9902 36.7023 49.9902C37.1253 49.9902 37.3508 49.8963 37.3414 49.408C37.332 45.0222 37.332 40.6271 37.3414 36.2413C37.3414 35.7999 37.1817 35.6684 36.7493 35.6684C35.5181 35.6872 34.2774 35.6872 33.0462 35.6684C32.5856 35.6684 32.4165 35.8093 32.4259 36.2695C32.4541 37.2837 32.4447 38.3074 32.4259 39.3217C32.4071 40.1481 32.0405 40.4862 31.2134 40.4862C29.766 40.4862 28.3092 40.4862 26.8618 40.4862C25.9313 40.4862 25.5835 40.1481 25.5741 39.2183C25.5647 38.2604 25.5459 37.2931 25.5741 36.3352C25.5929 35.8375 25.452 35.6308 24.9162 35.6496C23.7226 35.6872 22.5195 35.6872 21.3259 35.6496C20.8089 35.6308 20.6492 35.7999 20.6586 36.3164C20.6774 40.6271 20.6774 44.9377 20.6586 49.2483C20.6586 49.8212 20.8465 49.9809 21.4011 49.9809C23.9293 49.9527 26.4576 49.9715 28.9859 49.9715L28.9953 49.9902ZM19.6153 33.7244C22.1812 33.7244 24.7564 33.7056 27.3223 33.7338C27.905 33.7338 28.046 33.546 28.046 32.9919C28.0272 28.9536 28.0366 24.9247 28.0366 20.8864C28.0366 19.318 28.0366 19.3462 26.4576 19.3086C25.8749 19.2993 25.7339 19.5059 25.7433 20.0506C25.7621 23.0652 25.7527 26.0798 25.7527 29.1038C25.7527 30.4938 25.5177 30.7286 24.0985 30.7286C20.0946 30.7286 16.1001 30.7286 12.0963 30.7286C11.5449 30.7286 11.2692 31.0103 11.2692 31.5738C11.2692 32.0809 11.2974 32.5974 11.2692 33.1046C11.2316 33.6117 11.4477 33.7338 11.9177 33.7244C14.4836 33.7056 17.0588 33.7244 19.6247 33.7244H19.6153ZM14.6433 6.08561C15.8182 6.08561 17.0024 6.07621 18.1773 6.08561C18.5814 6.08561 18.7506 5.95413 18.7318 5.54091C18.7036 5.1089 18.7318 4.6769 18.7224 4.2449C18.7224 4.10403 18.713 3.94437 18.525 3.94437C18.3747 3.94437 18.3653 4.08524 18.3277 4.19794C18.0739 4.96803 17.8389 5.16525 17.0212 5.17464C15.4704 5.19343 13.9196 5.18403 12.3688 5.17464C11.5605 5.17464 11.3256 4.97742 11.0812 4.18855C11.0436 4.07585 11.0342 3.94437 10.8838 3.95377C10.6958 3.96316 10.6958 4.12281 10.6958 4.26368C10.6958 4.62055 10.724 4.97742 10.6864 5.3249C10.6206 5.90717 10.8086 6.13256 11.4289 6.10439C12.5098 6.05743 13.5907 6.095 14.6621 6.095L14.6433 6.08561ZM29.0047 38.561C29.9947 38.561 30.4897 38.0883 30.4897 37.1429C30.4897 36.1662 29.9916 35.6778 28.9953 35.6778C28.0053 35.6778 27.5103 36.1474 27.5103 37.0865C27.5103 38.0632 28.0084 38.5516 29.0047 38.5516V38.561ZM38.3565 22.2388C40.0483 22.22 39.7757 22.4454 39.8039 20.8207C39.8039 20.8019 39.8039 20.7831 39.8039 20.7643C39.8039 19.8127 39.334 19.3368 38.3941 19.3368C36.9185 19.3368 36.9091 19.3368 36.9185 20.8207C36.9279 22.4454 36.6929 22.22 38.3659 22.2388H38.3565ZM11.7767 37.1429C11.7767 36.1724 11.2974 35.6872 10.3387 35.6872C10.3387 35.6872 10.3011 35.6872 10.2823 35.6872C9.34867 35.6872 8.88187 36.1505 8.88187 37.0771C8.88187 38.0726 9.37374 38.5703 10.3575 38.5703C11.3036 38.5703 11.7767 38.0976 11.7767 37.1522V37.1429ZM47.7083 35.6872C46.7183 35.6872 46.2233 36.1787 46.2233 37.1616C46.2233 38.1008 46.7026 38.5703 47.6613 38.5703C48.6325 38.5703 49.1181 38.0883 49.1181 37.1241C49.1181 36.1662 48.6482 35.6903 47.7083 35.6966V35.6872ZM14.6997 2.00975C14.3144 2.00975 13.9196 2.01914 13.5343 2.00975C13.1113 1.99097 13.0079 2.20697 13.0173 2.58263C13.0173 2.9395 13.0737 3.19306 13.5249 3.18367C14.2486 3.16489 14.9629 3.17428 15.6866 3.18367C16.1001 3.18367 16.3915 3.14611 16.3915 2.60141C16.3915 2.0661 16.1377 1.98158 15.7054 2.00975C15.3764 2.02854 15.0475 2.00975 14.7091 2.00975H14.6997Z"/>
</mask>
<path d="M28.9859 51.9906C19.9818 51.9906 10.9778 51.9906 1.96435 51.9906C1.72938 51.9906 1.49441 51.9906 1.25944 51.9906C0.328958 51.9436 0 51.6056 0 50.6664C0 45.9989 0 41.3314 0 36.6733C0 36.0816 0 35.4994 0 34.9077C0.0093988 34.0719 0.347756 33.7338 1.18425 33.7338C3.59974 33.7338 6.01523 33.7338 8.42133 33.7338C9.01032 33.7338 9.30481 33.4301 9.30481 32.8228C9.30481 32.3345 9.28601 31.8461 9.30481 31.3484C9.33301 30.8976 9.17323 30.7192 8.70329 30.7286C7.44385 30.7567 6.19381 30.7379 4.93437 30.7286C3.96629 30.7286 3.63734 30.3905 3.63734 29.4138C3.63734 21.2151 3.63734 13.0258 3.63734 4.82716C3.63734 3.87863 3.98509 3.52176 4.95317 3.51237C6.03403 3.50298 7.11489 3.50298 8.18636 3.51237C8.51531 3.51237 8.72209 3.41846 8.86307 3.08976C9.17323 2.34784 9.75595 1.9534 10.5643 1.97219C10.9778 1.97219 11.0906 1.77497 11.0436 1.42749C10.9496 0.47896 11.4007 0 12.5192 0C13.9478 0.00939137 15.3858 0 16.8145 0C17.9799 0 18.2713 0.281741 18.3089 1.44627C18.3183 1.82193 18.4404 1.97219 18.8258 1.9628C19.6153 1.9628 20.1792 2.35723 20.48 3.07098C20.6304 3.43724 20.8559 3.51237 21.2037 3.51237C22.247 3.50298 23.2808 3.51237 24.3241 3.51237C25.3956 3.51237 25.7433 3.85985 25.7433 4.92108C25.7433 8.74336 25.7433 12.5656 25.7433 16.3879C25.7433 17.0516 26.066 17.3834 26.7114 17.3834C33.4033 17.3834 40.0953 17.3834 46.7872 17.3834C48.5166 17.3834 48.6952 17.5619 48.6952 19.318C48.6952 23.8447 48.6952 28.3713 48.6952 32.9073C48.6952 33.452 48.9615 33.7244 49.4941 33.7244C51.9096 33.7244 54.3251 33.7244 56.7312 33.7244C57.6804 33.7244 58.0094 34.0437 58.0094 34.9922C58.0094 40.2232 58.0094 45.4636 58.0094 50.6946C58.0094 51.5868 57.671 51.9343 56.7782 51.9812C56.5432 51.9906 56.3082 51.9812 56.0732 51.9812C47.0504 51.9812 38.0182 51.9812 28.9953 51.9812L28.9859 51.9906ZM5.60169 17.0829C5.60169 20.708 5.60169 24.333 5.60169 27.9675C5.60169 28.5122 5.86798 28.7845 6.40058 28.7845C11.9177 28.7845 17.4254 28.7845 22.9425 28.7845C23.5064 28.7845 23.7884 28.4903 23.7884 27.9018C23.7884 20.9427 23.7884 13.9837 23.7884 7.02474C23.7884 5.97917 23.262 5.45638 22.2094 5.45638C21.1567 5.45638 20.6429 5.93221 20.668 6.88387C20.668 6.88387 20.668 6.92144 20.668 6.94022C20.6116 7.66336 20.2638 8.01084 19.5495 8.02962C18.9198 8.03901 18.2901 8.02962 17.6697 8.02962C15.0757 8.02962 12.491 8.02962 9.89694 8.02962C9.10744 8.02962 8.75028 7.66336 8.73149 6.88387C8.73149 6.57396 8.71269 6.25465 8.73149 5.94474C8.75028 5.58786 8.5999 5.44699 8.24275 5.45638C7.61303 5.46578 6.98331 5.49395 6.36299 5.45638C5.76147 5.40943 5.59229 5.61604 5.60169 6.21708C5.62988 9.84215 5.61108 13.4672 5.61108 17.1017L5.60169 17.0829ZM38.3659 33.7244C40.9506 33.7244 43.5446 33.7244 46.1293 33.7244C46.5711 33.7244 46.7496 33.6117 46.7496 33.1327C46.7308 28.7282 46.7402 24.3142 46.7496 19.9097C46.7496 19.4871 46.6368 19.3086 46.1857 19.318C44.8887 19.3368 43.601 19.3368 42.304 19.318C41.8435 19.318 41.7401 19.5059 41.7495 19.9191C41.7683 20.9615 41.7589 21.9946 41.7495 23.037C41.7495 23.7977 41.4017 24.2109 40.6686 24.2297C39.1178 24.2579 37.567 24.2579 36.0256 24.2297C35.2925 24.2109 34.9729 23.8353 34.9729 23.1028C34.9729 22.0415 34.9541 20.9897 34.9729 19.9285C34.9823 19.4495 34.8132 19.318 34.3526 19.3274C33.1214 19.3462 31.8807 19.365 30.6495 19.3274C30.0856 19.3087 29.9634 19.5247 29.9634 20.0412C29.9822 24.3706 29.9822 28.7 29.9634 33.0294C29.9634 33.6211 30.1607 33.7432 30.7059 33.7432C33.253 33.715 35.8 33.7338 38.3565 33.7338L38.3659 33.7244ZM10.2635 49.9902C12.8294 49.9902 15.4046 49.9902 17.9705 49.9902C18.4216 49.9902 18.6566 49.8775 18.6566 49.3704C18.6472 44.994 18.6472 40.6271 18.6566 36.2507C18.6566 35.8281 18.5062 35.659 18.0739 35.6684C16.8145 35.6872 15.5644 35.6872 14.305 35.6684C13.8726 35.6684 13.7129 35.8093 13.7222 36.2413C13.741 37.218 13.7316 38.2041 13.7222 39.1808C13.7222 40.1669 13.4027 40.4956 12.4252 40.4956C11.053 40.4956 9.68077 40.4956 8.30854 40.4956C7.20888 40.4956 6.91752 40.2232 6.87992 39.115C6.85173 38.2135 6.85173 37.3119 6.87992 36.4103C6.89872 35.8656 6.74834 35.6308 6.15621 35.6496C4.98136 35.6872 3.79712 35.6872 2.62227 35.6496C2.05834 35.6308 1.92675 35.8375 1.93615 36.3634C1.95495 40.6552 1.95495 44.9471 1.93615 49.2483C1.93615 49.8682 2.16172 49.9996 2.72565 49.9902C5.23513 49.9621 7.74461 49.9809 10.2635 49.9809V49.9902ZM47.7271 49.9902C50.2742 49.9902 52.8307 49.9809 55.3777 49.9902C55.8759 49.9902 56.0638 49.8494 56.0638 49.3235C56.0451 44.9753 56.0451 40.6177 56.0638 36.2695C56.0638 35.8093 55.9229 35.6496 55.4529 35.659C54.2405 35.6872 53.0186 35.6872 51.8062 35.659C51.2893 35.6496 51.1107 35.8187 51.1201 36.3352C51.1389 37.3776 51.1389 38.4107 51.0825 39.4531C51.0449 40.2138 50.6971 40.4956 49.9452 40.4956C48.4508 40.4956 46.9658 40.4956 45.4714 40.4956C44.6349 40.4956 44.2872 40.1481 44.2778 39.3217C44.2684 38.345 44.2402 37.3589 44.2778 36.3822C44.3059 35.7999 44.0898 35.6496 43.5352 35.6684C42.3792 35.706 41.2231 35.706 40.0671 35.6684C39.4844 35.6496 39.334 35.8656 39.334 36.4197C39.3528 40.6928 39.334 44.9659 39.3434 49.2389C39.3434 49.9621 39.3716 49.9902 40.1235 49.9902C42.6518 49.9902 45.1894 49.9902 47.7177 49.9902H47.7271ZM28.9953 49.9902C31.5612 49.9902 34.1364 49.9902 36.7023 49.9902C37.1253 49.9902 37.3508 49.8963 37.3414 49.408C37.332 45.0222 37.332 40.6271 37.3414 36.2413C37.3414 35.7999 37.1817 35.6684 36.7493 35.6684C35.5181 35.6872 34.2774 35.6872 33.0462 35.6684C32.5856 35.6684 32.4165 35.8093 32.4259 36.2695C32.4541 37.2837 32.4447 38.3074 32.4259 39.3217C32.4071 40.1481 32.0405 40.4862 31.2134 40.4862C29.766 40.4862 28.3092 40.4862 26.8618 40.4862C25.9313 40.4862 25.5835 40.1481 25.5741 39.2183C25.5647 38.2604 25.5459 37.2931 25.5741 36.3352C25.5929 35.8375 25.452 35.6308 24.9162 35.6496C23.7226 35.6872 22.5195 35.6872 21.3259 35.6496C20.8089 35.6308 20.6492 35.7999 20.6586 36.3164C20.6774 40.6271 20.6774 44.9377 20.6586 49.2483C20.6586 49.8212 20.8465 49.9809 21.4011 49.9809C23.9293 49.9527 26.4576 49.9715 28.9859 49.9715L28.9953 49.9902ZM19.6153 33.7244C22.1812 33.7244 24.7564 33.7056 27.3223 33.7338C27.905 33.7338 28.046 33.546 28.046 32.9919C28.0272 28.9536 28.0366 24.9247 28.0366 20.8864C28.0366 19.318 28.0366 19.3462 26.4576 19.3086C25.8749 19.2993 25.7339 19.5059 25.7433 20.0506C25.7621 23.0652 25.7527 26.0798 25.7527 29.1038C25.7527 30.4938 25.5177 30.7286 24.0985 30.7286C20.0946 30.7286 16.1001 30.7286 12.0963 30.7286C11.5449 30.7286 11.2692 31.0103 11.2692 31.5738C11.2692 32.0809 11.2974 32.5974 11.2692 33.1046C11.2316 33.6117 11.4477 33.7338 11.9177 33.7244C14.4836 33.7056 17.0588 33.7244 19.6247 33.7244H19.6153ZM14.6433 6.08561C15.8182 6.08561 17.0024 6.07621 18.1773 6.08561C18.5814 6.08561 18.7506 5.95413 18.7318 5.54091C18.7036 5.1089 18.7318 4.6769 18.7224 4.2449C18.7224 4.10403 18.713 3.94437 18.525 3.94437C18.3747 3.94437 18.3653 4.08524 18.3277 4.19794C18.0739 4.96803 17.8389 5.16525 17.0212 5.17464C15.4704 5.19343 13.9196 5.18403 12.3688 5.17464C11.5605 5.17464 11.3256 4.97742 11.0812 4.18855C11.0436 4.07585 11.0342 3.94437 10.8838 3.95377C10.6958 3.96316 10.6958 4.12281 10.6958 4.26368C10.6958 4.62055 10.724 4.97742 10.6864 5.3249C10.6206 5.90717 10.8086 6.13256 11.4289 6.10439C12.5098 6.05743 13.5907 6.095 14.6621 6.095L14.6433 6.08561ZM29.0047 38.561C29.9947 38.561 30.4897 38.0883 30.4897 37.1429C30.4897 36.1662 29.9916 35.6778 28.9953 35.6778C28.0053 35.6778 27.5103 36.1474 27.5103 37.0865C27.5103 38.0632 28.0084 38.5516 29.0047 38.5516V38.561ZM38.3565 22.2388C40.0483 22.22 39.7757 22.4454 39.8039 20.8207C39.8039 20.8019 39.8039 20.7831 39.8039 20.7643C39.8039 19.8127 39.334 19.3368 38.3941 19.3368C36.9185 19.3368 36.9091 19.3368 36.9185 20.8207C36.9279 22.4454 36.6929 22.22 38.3659 22.2388H38.3565ZM11.7767 37.1429C11.7767 36.1724 11.2974 35.6872 10.3387 35.6872C10.3387 35.6872 10.3011 35.6872 10.2823 35.6872C9.34867 35.6872 8.88187 36.1505 8.88187 37.0771C8.88187 38.0726 9.37374 38.5703 10.3575 38.5703C11.3036 38.5703 11.7767 38.0976 11.7767 37.1522V37.1429ZM47.7083 35.6872C46.7183 35.6872 46.2233 36.1787 46.2233 37.1616C46.2233 38.1008 46.7026 38.5703 47.6613 38.5703C48.6325 38.5703 49.1181 38.0883 49.1181 37.1241C49.1181 36.1662 48.6482 35.6903 47.7083 35.6966V35.6872ZM14.6997 2.00975C14.3144 2.00975 13.9196 2.01914 13.5343 2.00975C13.1113 1.99097 13.0079 2.20697 13.0173 2.58263C13.0173 2.9395 13.0737 3.19306 13.5249 3.18367C14.2486 3.16489 14.9629 3.17428 15.6866 3.18367C16.1001 3.18367 16.3915 3.14611 16.3915 2.60141C16.3915 2.0661 16.1377 1.98158 15.7054 2.00975C15.3764 2.02854 15.0475 2.00975 14.7091 2.00975H14.6997Z" fill="#4C739B" stroke="white" stroke-width="0.6" mask="url(#path-1-inside-1_1_819)"/>
</g>
</svg>
