<svg width="41" height="51" viewBox="0 0 41 51" fill="none" xmlns="http://www.w3.org/2000/svg">
<g id="Vector">
<mask id="path-1-inside-1_1_812" fill="white">
<path d="M19.9979 50.9809C14.5752 50.9809 9.15255 50.9809 3.72988 50.9809C1.44413 50.9809 0 49.5358 0 47.2485C0 33.9267 0 20.6144 0 7.29261C0 4.93832 1.42501 3.49321 3.76814 3.48364C6.38862 3.4645 9.01866 3.4645 11.6391 3.48364C12.0408 3.48364 12.2608 3.38793 12.4138 2.96684C13.045 1.1772 14.7474 -0.00951282 16.5741 5.74597e-05C18.3912 0.00962774 20.0457 1.12935 20.6865 2.87114C20.8682 3.36879 21.1264 3.48364 21.6142 3.48364C24.2155 3.4645 26.8265 3.4645 29.4278 3.48364C31.3979 3.49321 32.7273 4.57465 33.0716 6.41214C33.129 6.69925 33.1194 7.0055 33.1194 7.30218C33.1194 14.2598 33.1194 21.2174 33.1194 28.1749C33.1194 28.6726 33.3713 28.9214 33.875 28.9214C35.673 28.9214 37.471 28.9214 39.2594 28.9214C40.0054 28.9214 40.5601 29.2085 40.8565 29.8976C41.153 30.5962 40.9617 31.2087 40.4453 31.7255C39.9767 32.204 39.5176 32.6921 39.0203 33.1419C38.6377 33.4865 38.4943 33.8597 38.4943 34.3861C38.5134 39.1616 38.4656 43.9372 38.523 48.7032C38.5421 50.2536 37.6909 51.0096 36.2085 50.9905C30.805 50.9426 25.4014 50.9713 19.9979 50.9713V50.9809ZM4.91579 27.1988C4.91579 33.2759 4.91579 39.353 4.91579 45.4302C4.91579 45.8991 5.03056 46.0809 5.53744 46.0714C7.2111 46.0427 8.88477 46.0522 10.5584 46.0714C10.9792 46.0714 11.1036 45.9374 11.1036 45.5259C11.094 41.7169 11.094 37.9175 11.1036 34.1085C11.1036 33.8023 11.0079 33.5726 10.788 33.362C10.262 32.8644 9.7742 32.338 9.24819 31.8404C8.70306 31.314 8.40658 30.7111 8.69349 29.9454C8.96128 29.2468 9.50641 28.931 10.4245 28.931C13.0641 28.931 15.7038 28.9693 18.3434 28.9119C19.3284 28.8927 20.0935 29.2085 20.7534 29.8785C21.2029 30.3283 21.6429 30.7781 22.0732 31.247C22.8288 32.0701 22.8766 32.0701 23.6417 31.2279C23.9477 30.8929 24.2729 30.5675 24.579 30.223C25.4014 29.3234 26.3483 28.7205 27.6394 28.931C28.0793 28.998 28.2132 28.797 28.2132 28.3664C28.1941 26.6724 28.2132 24.988 28.2132 23.2941C28.2132 18.5377 28.2132 13.7813 28.2132 9.02483C28.2132 8.56545 28.1176 8.36448 27.6011 8.38362C26.2813 8.4219 24.9615 8.40276 23.6417 8.38362C23.3548 8.38362 23.1635 8.44104 23.0296 8.74729C22.5514 9.82873 21.6716 10.3551 20.5239 10.3742C17.8843 10.4029 15.2447 10.4029 12.6051 10.3742C11.4574 10.3647 10.5776 9.82873 10.1089 8.74729C9.97504 8.44104 9.7742 8.39319 9.48729 8.39319C8.2153 8.39319 6.95288 8.39319 5.6809 8.39319C5.1772 8.39319 4.92536 8.64202 4.92536 9.13967C4.92536 15.1594 4.92536 21.1886 4.92536 27.2084L4.91579 27.1988ZM23.7182 41.602C23.7182 43.8893 23.7278 46.1862 23.7087 48.4735C23.7087 48.9616 23.8234 49.153 24.3494 49.1434C28.2419 49.1243 32.1344 49.1243 36.0173 49.1434C36.4955 49.1434 36.658 49.0094 36.6485 48.5118C36.6389 43.9468 36.6485 39.3817 36.6676 34.8263C36.6676 34.3191 36.5241 34.1659 36.0077 34.1659C32.1152 34.1851 28.2228 34.1851 24.3399 34.1659C23.8043 34.1659 23.6991 34.3478 23.6991 34.8359C23.7182 37.0944 23.7087 39.3435 23.7087 41.602H23.7182ZM21.9489 41.7073C21.9489 39.4009 21.9394 37.0944 21.9585 34.788C21.9585 34.2904 21.8055 34.1659 21.3273 34.1659C18.745 34.1851 16.1533 34.1947 13.571 34.1659C13.0259 34.1659 12.892 34.3382 12.892 34.8646C12.9111 39.3913 12.9111 43.9085 12.892 48.4352C12.892 48.952 13.0163 49.1434 13.571 49.1434C16.1533 49.1147 18.745 49.1243 21.3273 49.1434C21.8055 49.1434 21.968 49.019 21.968 48.5214C21.9394 46.2532 21.9585 43.985 21.9585 41.7073H21.9489ZM1.84581 27.2275C1.84581 33.9554 1.84581 40.6833 1.84581 47.4112C1.84581 48.4926 2.4579 49.1243 3.53861 49.1243C5.86261 49.1243 8.18661 49.1243 10.5106 49.1339C11.0079 49.1339 11.0844 48.9233 11.0844 48.5022C11.0844 48.0428 10.9601 47.8897 10.4819 47.8897C8.47353 47.9089 6.46513 47.8993 4.46629 47.8897C3.36646 47.8897 3.06042 47.593 3.06998 46.4733C3.06998 33.6683 3.06998 20.8633 3.08911 8.05823C3.08911 7.82854 3.10823 7.59886 3.13693 7.37874C3.20387 6.91937 3.47166 6.6514 3.93072 6.60355C4.20807 6.57484 4.49498 6.5557 4.77234 6.5557C6.28341 6.5557 7.80406 6.53656 9.31514 6.5557C9.83158 6.5557 9.91766 6.34515 9.92722 5.88578C9.92722 5.41683 9.78376 5.28285 9.31514 5.29242C7.48845 5.31156 5.6522 5.29242 3.82552 5.30199C2.41964 5.30199 1.84581 5.87621 1.84581 7.29261C1.84581 13.9344 1.84581 20.5761 1.84581 27.2179V27.2275ZM31.2641 17.6476C31.2641 14.0875 31.2641 10.5369 31.2641 6.97679C31.2641 6.01976 30.6042 5.3307 29.6478 5.32113C27.6776 5.30199 25.7075 5.32113 23.7373 5.31156C23.307 5.31156 23.2496 5.54125 23.2592 5.87621C23.2687 6.22074 23.2209 6.57484 23.7373 6.5557C24.4259 6.54613 25.105 6.5557 25.7936 6.5557C26.8838 6.5557 27.9741 6.5557 29.0644 6.60355C29.686 6.63226 29.9729 6.96722 30.0208 7.57972C30.0399 7.77112 30.0208 7.96253 30.0208 8.1635C30.0208 14.7957 30.0208 21.4375 30.0208 28.0697C30.0208 28.2419 30.0208 28.4238 30.0208 28.596C30.0208 28.7205 30.059 28.8257 30.1929 28.8927C30.7572 29.1511 31.2354 28.8544 31.2354 28.2515C31.2354 24.7105 31.2354 21.1791 31.2354 17.6381L31.2641 17.6476ZM16.6123 5.32113C15.2064 5.32113 13.8006 5.34027 12.3947 5.32113C11.9261 5.32113 11.7157 5.4264 11.7443 5.93363C11.7826 6.49827 11.7443 7.06292 11.7539 7.618C11.773 8.27835 12.0313 8.52717 12.7007 8.53674C15.2638 8.53674 17.8365 8.53674 20.3996 8.53674C21.0786 8.53674 21.4038 8.22092 21.4229 7.54143C21.442 6.97679 21.4038 6.41214 21.4325 5.85707C21.4612 5.4264 21.2699 5.32113 20.8778 5.32113C19.4528 5.34027 18.0278 5.32113 16.6123 5.32113ZM25.1624 32.1849C25.191 32.2327 25.2197 32.2902 25.2484 32.338H25.8701C29.3322 32.338 32.7943 32.271 36.2564 32.3667C37.5283 32.405 37.9683 31.5341 38.7429 30.8259C38.5612 30.7876 38.5038 30.7589 38.4369 30.7589C34.6401 30.7589 30.8432 30.7589 27.0464 30.7589C26.8073 30.7589 26.5969 30.8259 26.4152 30.9886C25.9944 31.381 25.5736 31.7829 25.1624 32.1753V32.1849ZM10.8167 30.9216C11.1705 31.247 11.5148 31.4958 11.7826 31.8117C12.1365 32.2232 12.5381 32.3572 13.0737 32.3476C15.3595 32.3189 17.6452 32.3476 19.931 32.338C20.1127 32.338 20.3039 32.3954 20.5909 32.1562C20.2848 31.9074 19.9788 31.716 19.7492 31.4576C19.2997 30.9408 18.7929 30.7398 18.0851 30.7494C15.8855 30.7876 13.6954 30.7589 11.4957 30.7685C11.314 30.7685 11.1131 30.7111 10.8071 30.9312L10.8167 30.9216ZM16.5645 3.47407C17.234 3.47407 17.8939 3.4645 18.5633 3.47407C18.9746 3.47407 18.9554 3.31137 18.7833 3.03383C17.8174 1.46431 15.4742 1.41646 14.4222 2.9477C14.3361 3.07212 14.1831 3.19653 14.2883 3.36879C14.3744 3.51235 14.537 3.4645 14.6709 3.4645C15.3021 3.4645 15.9333 3.4645 16.5645 3.4645V3.47407Z"/>
</mask>
<path d="M19.9979 50.9809C14.5752 50.9809 9.15255 50.9809 3.72988 50.9809C1.44413 50.9809 0 49.5358 0 47.2485C0 33.9267 0 20.6144 0 7.29261C0 4.93832 1.42501 3.49321 3.76814 3.48364C6.38862 3.4645 9.01866 3.4645 11.6391 3.48364C12.0408 3.48364 12.2608 3.38793 12.4138 2.96684C13.045 1.1772 14.7474 -0.00951282 16.5741 5.74597e-05C18.3912 0.00962774 20.0457 1.12935 20.6865 2.87114C20.8682 3.36879 21.1264 3.48364 21.6142 3.48364C24.2155 3.4645 26.8265 3.4645 29.4278 3.48364C31.3979 3.49321 32.7273 4.57465 33.0716 6.41214C33.129 6.69925 33.1194 7.0055 33.1194 7.30218C33.1194 14.2598 33.1194 21.2174 33.1194 28.1749C33.1194 28.6726 33.3713 28.9214 33.875 28.9214C35.673 28.9214 37.471 28.9214 39.2594 28.9214C40.0054 28.9214 40.5601 29.2085 40.8565 29.8976C41.153 30.5962 40.9617 31.2087 40.4453 31.7255C39.9767 32.204 39.5176 32.6921 39.0203 33.1419C38.6377 33.4865 38.4943 33.8597 38.4943 34.3861C38.5134 39.1616 38.4656 43.9372 38.523 48.7032C38.5421 50.2536 37.6909 51.0096 36.2085 50.9905C30.805 50.9426 25.4014 50.9713 19.9979 50.9713V50.9809ZM4.91579 27.1988C4.91579 33.2759 4.91579 39.353 4.91579 45.4302C4.91579 45.8991 5.03056 46.0809 5.53744 46.0714C7.2111 46.0427 8.88477 46.0522 10.5584 46.0714C10.9792 46.0714 11.1036 45.9374 11.1036 45.5259C11.094 41.7169 11.094 37.9175 11.1036 34.1085C11.1036 33.8023 11.0079 33.5726 10.788 33.362C10.262 32.8644 9.7742 32.338 9.24819 31.8404C8.70306 31.314 8.40658 30.7111 8.69349 29.9454C8.96128 29.2468 9.50641 28.931 10.4245 28.931C13.0641 28.931 15.7038 28.9693 18.3434 28.9119C19.3284 28.8927 20.0935 29.2085 20.7534 29.8785C21.2029 30.3283 21.6429 30.7781 22.0732 31.247C22.8288 32.0701 22.8766 32.0701 23.6417 31.2279C23.9477 30.8929 24.2729 30.5675 24.579 30.223C25.4014 29.3234 26.3483 28.7205 27.6394 28.931C28.0793 28.998 28.2132 28.797 28.2132 28.3664C28.1941 26.6724 28.2132 24.988 28.2132 23.2941C28.2132 18.5377 28.2132 13.7813 28.2132 9.02483C28.2132 8.56545 28.1176 8.36448 27.6011 8.38362C26.2813 8.4219 24.9615 8.40276 23.6417 8.38362C23.3548 8.38362 23.1635 8.44104 23.0296 8.74729C22.5514 9.82873 21.6716 10.3551 20.5239 10.3742C17.8843 10.4029 15.2447 10.4029 12.6051 10.3742C11.4574 10.3647 10.5776 9.82873 10.1089 8.74729C9.97504 8.44104 9.7742 8.39319 9.48729 8.39319C8.2153 8.39319 6.95288 8.39319 5.6809 8.39319C5.1772 8.39319 4.92536 8.64202 4.92536 9.13967C4.92536 15.1594 4.92536 21.1886 4.92536 27.2084L4.91579 27.1988ZM23.7182 41.602C23.7182 43.8893 23.7278 46.1862 23.7087 48.4735C23.7087 48.9616 23.8234 49.153 24.3494 49.1434C28.2419 49.1243 32.1344 49.1243 36.0173 49.1434C36.4955 49.1434 36.658 49.0094 36.6485 48.5118C36.6389 43.9468 36.6485 39.3817 36.6676 34.8263C36.6676 34.3191 36.5241 34.1659 36.0077 34.1659C32.1152 34.1851 28.2228 34.1851 24.3399 34.1659C23.8043 34.1659 23.6991 34.3478 23.6991 34.8359C23.7182 37.0944 23.7087 39.3435 23.7087 41.602H23.7182ZM21.9489 41.7073C21.9489 39.4009 21.9394 37.0944 21.9585 34.788C21.9585 34.2904 21.8055 34.1659 21.3273 34.1659C18.745 34.1851 16.1533 34.1947 13.571 34.1659C13.0259 34.1659 12.892 34.3382 12.892 34.8646C12.9111 39.3913 12.9111 43.9085 12.892 48.4352C12.892 48.952 13.0163 49.1434 13.571 49.1434C16.1533 49.1147 18.745 49.1243 21.3273 49.1434C21.8055 49.1434 21.968 49.019 21.968 48.5214C21.9394 46.2532 21.9585 43.985 21.9585 41.7073H21.9489ZM1.84581 27.2275C1.84581 33.9554 1.84581 40.6833 1.84581 47.4112C1.84581 48.4926 2.4579 49.1243 3.53861 49.1243C5.86261 49.1243 8.18661 49.1243 10.5106 49.1339C11.0079 49.1339 11.0844 48.9233 11.0844 48.5022C11.0844 48.0428 10.9601 47.8897 10.4819 47.8897C8.47353 47.9089 6.46513 47.8993 4.46629 47.8897C3.36646 47.8897 3.06042 47.593 3.06998 46.4733C3.06998 33.6683 3.06998 20.8633 3.08911 8.05823C3.08911 7.82854 3.10823 7.59886 3.13693 7.37874C3.20387 6.91937 3.47166 6.6514 3.93072 6.60355C4.20807 6.57484 4.49498 6.5557 4.77234 6.5557C6.28341 6.5557 7.80406 6.53656 9.31514 6.5557C9.83158 6.5557 9.91766 6.34515 9.92722 5.88578C9.92722 5.41683 9.78376 5.28285 9.31514 5.29242C7.48845 5.31156 5.6522 5.29242 3.82552 5.30199C2.41964 5.30199 1.84581 5.87621 1.84581 7.29261C1.84581 13.9344 1.84581 20.5761 1.84581 27.2179V27.2275ZM31.2641 17.6476C31.2641 14.0875 31.2641 10.5369 31.2641 6.97679C31.2641 6.01976 30.6042 5.3307 29.6478 5.32113C27.6776 5.30199 25.7075 5.32113 23.7373 5.31156C23.307 5.31156 23.2496 5.54125 23.2592 5.87621C23.2687 6.22074 23.2209 6.57484 23.7373 6.5557C24.4259 6.54613 25.105 6.5557 25.7936 6.5557C26.8838 6.5557 27.9741 6.5557 29.0644 6.60355C29.686 6.63226 29.9729 6.96722 30.0208 7.57972C30.0399 7.77112 30.0208 7.96253 30.0208 8.1635C30.0208 14.7957 30.0208 21.4375 30.0208 28.0697C30.0208 28.2419 30.0208 28.4238 30.0208 28.596C30.0208 28.7205 30.059 28.8257 30.1929 28.8927C30.7572 29.1511 31.2354 28.8544 31.2354 28.2515C31.2354 24.7105 31.2354 21.1791 31.2354 17.6381L31.2641 17.6476ZM16.6123 5.32113C15.2064 5.32113 13.8006 5.34027 12.3947 5.32113C11.9261 5.32113 11.7157 5.4264 11.7443 5.93363C11.7826 6.49827 11.7443 7.06292 11.7539 7.618C11.773 8.27835 12.0313 8.52717 12.7007 8.53674C15.2638 8.53674 17.8365 8.53674 20.3996 8.53674C21.0786 8.53674 21.4038 8.22092 21.4229 7.54143C21.442 6.97679 21.4038 6.41214 21.4325 5.85707C21.4612 5.4264 21.2699 5.32113 20.8778 5.32113C19.4528 5.34027 18.0278 5.32113 16.6123 5.32113ZM25.1624 32.1849C25.191 32.2327 25.2197 32.2902 25.2484 32.338H25.8701C29.3322 32.338 32.7943 32.271 36.2564 32.3667C37.5283 32.405 37.9683 31.5341 38.7429 30.8259C38.5612 30.7876 38.5038 30.7589 38.4369 30.7589C34.6401 30.7589 30.8432 30.7589 27.0464 30.7589C26.8073 30.7589 26.5969 30.8259 26.4152 30.9886C25.9944 31.381 25.5736 31.7829 25.1624 32.1753V32.1849ZM10.8167 30.9216C11.1705 31.247 11.5148 31.4958 11.7826 31.8117C12.1365 32.2232 12.5381 32.3572 13.0737 32.3476C15.3595 32.3189 17.6452 32.3476 19.931 32.338C20.1127 32.338 20.3039 32.3954 20.5909 32.1562C20.2848 31.9074 19.9788 31.716 19.7492 31.4576C19.2997 30.9408 18.7929 30.7398 18.0851 30.7494C15.8855 30.7876 13.6954 30.7589 11.4957 30.7685C11.314 30.7685 11.1131 30.7111 10.8071 30.9312L10.8167 30.9216ZM16.5645 3.47407C17.234 3.47407 17.8939 3.4645 18.5633 3.47407C18.9746 3.47407 18.9554 3.31137 18.7833 3.03383C17.8174 1.46431 15.4742 1.41646 14.4222 2.9477C14.3361 3.07212 14.1831 3.19653 14.2883 3.36879C14.3744 3.51235 14.537 3.4645 14.6709 3.4645C15.3021 3.4645 15.9333 3.4645 16.5645 3.4645V3.47407Z" fill="#4C739B" stroke="white" stroke-width="0.6" mask="url(#path-1-inside-1_1_812)"/>
</g>
</svg>
