<svg width="39" height="35" viewBox="0 0 39 35" fill="none" xmlns="http://www.w3.org/2000/svg">
<g id="Layer_1" clip-path="url(#clip0_1_769)">
<path id="Vector" d="M19.467 34.9935C14.0418 34.9935 8.62334 34.9935 3.19823 34.9935C2.0088 34.9935 1.03744 34.5722 0.403075 33.5189C0.0991102 33.0187 0.0132071 32.4723 0.0132071 31.893C0.019815 25.4091 0.0396388 18.9318 -8.74341e-06 12.4544C-0.0132246 10.7824 1.12995 9.28158 3.1718 9.28816C5.31937 9.28816 7.47356 9.28816 9.62114 9.28816C9.98237 9.28816 10.1608 9.11482 10.1564 8.76813C10.1299 4.25243 13.7313 0.394989 18.2445 0.0263604C22.8238 -0.342269 26.9736 2.92931 27.641 7.46477C27.707 7.9058 27.7929 8.35343 27.7401 8.80105C27.6806 9.22892 27.8656 9.29475 28.2489 9.29475C30.7665 9.28158 33.2907 9.28158 35.8084 9.29475C36.978 9.29475 37.9493 9.6897 38.5903 10.7232C38.848 11.1511 39 11.6053 39 12.1055C39 18.7935 39.0066 25.4881 39 32.1761C39 33.7691 37.6652 34.9869 35.9405 35C33.9978 35.0132 32.0617 35 30.1189 35C26.5705 35 23.022 35 19.4736 35L19.467 34.9935ZM19.1101 33.723C22.9229 33.723 26.7357 33.723 30.5484 33.723C31.0639 33.723 31.0771 33.7098 31.0771 33.1898C31.0771 30.3395 31.0771 27.4892 31.0771 24.6323C31.0771 20.1101 31.0771 15.5878 31.0837 11.0721C31.0837 10.6771 30.9714 10.5389 30.5683 10.552C29.696 10.5784 28.8238 10.5784 27.9581 10.552C27.5815 10.5389 27.3899 10.6508 27.2775 11.026C27.0132 11.8949 26.6299 12.7243 26.207 13.5274C24.3766 17.0096 22.0771 20.1825 19.6255 23.25C19.1366 23.8622 18.7863 23.849 18.2973 23.25C16.7048 21.2686 15.1916 19.2346 13.8106 17.0952C12.5352 15.127 11.3524 13.1127 10.5859 10.8812C10.5 10.6376 10.3612 10.5586 10.1167 10.5652C9.32378 10.5718 8.53083 10.5652 7.74448 10.5652C7.37004 10.5652 7.18281 10.7539 7.18281 11.1313C7.18281 18.4776 7.18281 25.8238 7.18281 33.1701C7.18281 33.723 7.18281 33.723 7.7577 33.723C11.544 33.723 15.3304 33.723 19.1167 33.723H19.1101ZM26.478 8.5904C26.4581 8.39292 26.4251 8.12961 26.3987 7.87289C26.0088 4.0747 22.4471 0.915019 18.3106 1.31656C15.8458 1.55354 13.9493 2.72525 12.6145 4.77904C11.6894 6.2009 11.2863 7.77415 11.5242 9.47248C11.6498 10.3546 11.9736 11.1774 12.3502 11.9739C14.0286 15.5285 16.3348 18.6816 18.7335 21.7755C18.9119 22.0059 19.0374 21.9532 19.1894 21.7491C19.4868 21.3476 19.804 20.9592 20.1013 20.5577C22.1167 17.8851 24.0396 15.1533 25.4802 12.1253C26.0022 11.026 26.4185 9.90035 26.4714 8.59698L26.478 8.5904ZM32.359 22.1375C32.359 25.8041 32.359 29.4706 32.359 33.1371C32.359 33.5233 32.5573 33.7164 32.9537 33.7164C33.9317 33.7164 34.9097 33.7164 35.881 33.7164C37.0639 33.7098 37.7181 33.0516 37.7181 31.8799C37.7181 25.3893 37.7181 18.8923 37.7181 12.4018C37.7181 11.23 37.0639 10.5718 35.881 10.5652C34.9163 10.5652 33.9515 10.5652 32.9934 10.5652C32.5705 10.5652 32.359 10.7715 32.359 11.184C32.359 14.8373 32.359 18.4907 32.359 22.1441V22.1375ZM5.89426 22.1573C5.89426 18.4776 5.89426 14.7978 5.89426 11.1181C5.89426 10.5586 5.89426 10.5586 5.31937 10.552C4.57929 10.552 3.8392 10.552 3.10572 10.552C1.97576 10.5652 1.31497 11.23 1.30836 12.3491C1.30836 18.8659 1.30836 25.3828 1.30836 31.8996C1.30836 33.0187 1.97576 33.6901 3.09911 33.7032C3.8392 33.7098 4.57929 33.7032 5.31277 33.7032C5.70043 33.7032 5.89426 33.5036 5.89426 33.1042C5.89426 29.4508 5.89426 25.7975 5.89426 22.1441V22.1573Z" fill="#4C739B"/>
<path id="Vector_2" d="M23.663 8.73525C23.6828 11.3881 21.3766 13.4682 18.9119 13.4155C16.2819 13.3563 14.2599 11.3288 14.2665 8.64309C14.2731 6.10877 16.3942 4.02864 18.9647 4.04181C21.5815 4.05498 23.6696 6.14168 23.663 8.73525ZM22.3612 8.74841C22.3612 6.81311 20.9075 5.33859 18.9779 5.33201C17.0286 5.33201 15.5484 6.77361 15.5418 8.68917C15.5352 10.6508 16.989 12.1253 18.9449 12.1253C20.8876 12.1253 22.3612 10.6705 22.3612 8.74841Z" fill="#4C739B"/>
<path id="Vector_3" d="M34.0573 22.098C34.0573 21.308 34.0573 20.5247 34.0573 19.7348C34.0573 19.2608 34.2885 18.9778 34.6652 18.9712C35.0484 18.9646 35.326 19.2345 35.3326 19.6953C35.3458 21.3212 35.3458 22.9537 35.3326 24.5796C35.3326 25.0404 35.0484 25.3103 34.6652 25.3037C34.2885 25.2971 34.0639 25.0207 34.0573 24.5401C34.0573 23.7239 34.0573 22.9142 34.0573 22.098Z" fill="#4C739B"/>
<path id="Vector_4" d="M2.86781 22.1243C2.86781 21.7294 2.8612 21.3344 2.86781 20.946C2.88102 20.4918 3.1123 20.2417 3.48895 20.2285C3.88543 20.2219 4.14314 20.4787 4.14974 20.946C4.16296 21.7491 4.16296 22.5456 4.14974 23.3487C4.14314 23.7963 3.89203 24.0465 3.50877 24.0465C3.12551 24.0465 2.89424 23.7963 2.86781 23.3487C2.86781 23.3224 2.86781 23.296 2.86781 23.2697C2.86781 22.8879 2.86781 22.5061 2.86781 22.1309V22.1243Z" fill="#4C739B"/>
</g>
<defs>
<clipPath id="clip0_1_769">
<rect width="39" height="35" fill="white"/>
</clipPath>
</defs>
</svg>
