<svg width="40" height="40" viewBox="0 0 40 40" fill="none" xmlns="http://www.w3.org/2000/svg">
<g id="print-svgrepo-com 1" clip-path="url(#clip0_16_262)">
<path id="Vector" d="M35.8334 16.6666H30V9.39163L22.135 1.66663H10V16.6666H4.16669C3.50365 16.6666 2.86776 16.93 2.39892 17.3989C1.93008 17.8677 1.66669 18.5036 1.66669 19.1666V32.5C1.66669 33.163 1.93008 33.7989 2.39892 34.2677C2.86776 34.7366 3.50365 35 4.16669 35H10V38.3333H30V35H35.8334C36.4964 35 37.1323 34.7366 37.6011 34.2677C38.07 33.7989 38.3334 33.163 38.3334 32.5V19.1666C38.3334 18.5036 38.07 17.8677 37.6011 17.3989C37.1323 16.93 36.4964 16.6666 35.8334 16.6666ZM28.3334 9.99996H21.6667V3.33329L28.3334 9.99996ZM11.6667 3.33329H20V11.6666H28.3334V16.6666H11.6667V3.33329ZM28.3334 36.6666H11.6667V28.3333H28.3334V36.6666ZM36.6667 32.5C36.6667 32.721 36.5789 32.9329 36.4226 33.0892C36.2663 33.2455 36.0544 33.3333 35.8334 33.3333H30V30H31.6667V26.6666H8.33335V30H10V33.3333H4.16669C3.94567 33.3333 3.73371 33.2455 3.57743 33.0892C3.42115 32.9329 3.33335 32.721 3.33335 32.5V19.1666C3.33335 18.9456 3.42115 18.7336 3.57743 18.5774C3.73371 18.4211 3.94567 18.3333 4.16669 18.3333H35.8334C36.0544 18.3333 36.2663 18.4211 36.4226 18.5774C36.5789 18.7336 36.6667 18.9456 36.6667 19.1666V32.5ZM25 33.3333V35H15V33.3333H25ZM15 31.6666V30H25V31.6666H15ZM31.6667 20H33.3334V21.6666H31.6667V20Z" fill="#4C739B"/>
</g>
<defs>
<clipPath id="clip0_16_262">
<rect width="40" height="40" fill="white"/>
</clipPath>
</defs>
</svg>
