<svg width="28" height="33" viewBox="0 0 28 33" fill="none" xmlns="http://www.w3.org/2000/svg">
<path d="M18.7241 26.0385V27.2308C18.7241 28.4956 18.2265 29.7087 17.3407 30.6031C16.455 31.4975 15.2536 32 14.0009 32C12.7482 32 11.5468 31.4975 10.661 30.6031C9.77524 29.7087 9.27761 28.4956 9.27761 27.2308V26.0385M26.671 23.6114C24.7758 21.2692 23.4378 20.0769 23.4378 13.6198C23.4378 7.70673 20.4474 5.60007 17.9861 4.57692C17.6592 4.4413 17.3514 4.12981 17.2518 3.79075C16.8201 2.30707 15.6097 1 14.0009 1C12.392 1 11.1809 2.30781 10.7536 3.79224C10.654 4.13502 10.3463 4.4413 10.0193 4.57692C7.5551 5.60156 4.56763 7.70077 4.56763 13.6198C4.56394 20.0769 3.22593 21.2692 1.33072 23.6114C0.545473 24.5816 1.2333 26.0385 2.60674 26.0385H25.4024C26.7685 26.0385 27.4519 24.5771 26.671 23.6114Z" stroke="#325F8D" stroke-linecap="round" stroke-linejoin="round"/>
</svg>
