<svg width="25" height="26" viewBox="0 0 25 26" fill="none" xmlns="http://www.w3.org/2000/svg">
<path id="Vector" d="M16.3399 20.9625L22.8105 14.5275C23.0501 14.2892 23.3551 14.17 23.7255 14.17C24.0959 14.17 24.4009 14.2892 24.6405 14.5275C24.8802 14.7658 25 15.0692 25 15.4375C25 15.8058 24.8802 16.1092 24.6405 16.3475L17.2549 23.6925C16.9935 23.9525 16.6885 24.0825 16.3399 24.0825C15.9913 24.0825 15.6863 23.9525 15.4248 23.6925L11.6993 19.9875C11.4597 19.7492 11.3399 19.4458 11.3399 19.0775C11.3399 18.7092 11.4597 18.4058 11.6993 18.1675C11.939 17.9292 12.244 17.81 12.6144 17.81C12.9848 17.81 13.2898 17.9292 13.5294 18.1675L16.3399 20.9625ZM2.61438 26C1.89543 26 1.27974 25.7452 0.767322 25.2356C0.254904 24.726 -0.00086924 24.1141 2.21934e-06 23.4V5.2C2.21934e-06 4.485 0.256211 3.8727 0.76863 3.3631C1.28105 2.8535 1.8963 2.59913 2.61438 2.6H8.0719C8.31155 1.84167 8.77996 1.21854 9.47713 0.730602C10.1743 0.242669 10.9368 -0.000864361 11.7647 2.30496e-06C12.6362 2.30496e-06 13.4153 0.243969 14.102 0.731902C14.7887 1.21984 15.2514 1.84253 15.4902 2.6H20.915C21.634 2.6 22.2497 2.8548 22.7621 3.3644C23.2745 3.874 23.5303 4.48587 23.5294 5.2V10.4C23.5294 10.7683 23.4039 11.0773 23.1529 11.3269C22.902 11.5765 22.5917 11.7009 22.2222 11.7C21.8519 11.7 21.5412 11.5752 21.2902 11.3256C21.0392 11.076 20.9142 10.7675 20.915 10.4V5.2H18.3007V7.8C18.3007 8.16833 18.1752 8.4773 17.9242 8.7269C17.6732 8.9765 17.363 9.10087 16.9935 9.1H6.53595C6.16558 9.1 5.8549 8.9752 5.60392 8.7256C5.35294 8.476 5.22789 8.16747 5.22876 7.8V5.2H2.61438V23.4H9.15033C9.5207 23.4 9.83138 23.5248 10.0824 23.7744C10.3333 24.024 10.4584 24.3325 10.4575 24.7C10.4575 25.0683 10.332 25.3773 10.081 25.6269C9.83007 25.8765 9.51983 26.0009 9.15033 26H2.61438ZM11.7647 5.2C12.1351 5.2 12.4458 5.0752 12.6967 4.8256C12.9477 4.576 13.0728 4.26747 13.0719 3.9C13.0719 3.53167 12.9464 3.2227 12.6954 2.9731C12.4444 2.7235 12.1342 2.59913 11.7647 2.6C11.3943 2.6 11.0837 2.7248 10.8327 2.9744C10.5817 3.224 10.4566 3.53253 10.4575 3.9C10.4575 4.26833 10.583 4.5773 10.834 4.8269C11.085 5.0765 11.3952 5.20087 11.7647 5.2Z" fill="white"/>
</svg>
