<svg width="17" height="34" viewBox="0 0 17 34" fill="none" xmlns="http://www.w3.org/2000/svg">
<path id="Vector" d="M7.47794 0C8.98767 0 10.4953 0 12.005 0C12.1404 0.371445 12.3715 0.739403 12.3945 1.11608C12.4528 2.00546 12.4132 2.89832 12.4132 3.77898C13.6571 3.92779 14.279 4.53873 14.279 5.61179C14.279 6.79763 14.2394 7.98346 14.3061 9.16581C14.3227 9.45355 14.6039 9.84418 14.8996 9.98717C16.2323 10.6359 16.9882 11.5514 16.9903 12.8611C16.9965 18.8443 17.0132 24.8276 16.9799 30.8125C16.9695 32.7692 15.4451 33.9881 13.1379 33.9951C10.1892 34.0038 7.24055 33.9986 4.29189 33.9968C1.38488 33.9968 0.0146658 32.8494 0.010501 30.3923C0.00217148 25.7675 0.00841864 21.1427 0.010501 16.518C0.010501 15.2746 -0.0228172 14.0312 0.0292425 12.7896C0.104208 10.9428 1.60769 9.74477 3.79628 9.72385C4.22317 9.72036 4.65006 9.72385 5.14775 9.72385C5.14775 7.99916 5.16232 6.41223 5.1415 4.82705C5.13317 4.17484 5.45386 3.85571 6.23475 3.86443C6.4659 3.86792 6.69913 3.82606 7.02814 3.79642C7.02814 2.87739 6.98441 1.98453 7.04897 1.0969C7.07604 0.725452 7.32801 0.367958 7.47794 0.00348775V0ZM1.55147 21.7845C1.55147 24.7037 1.53897 27.6247 1.55771 30.544C1.56604 32.0175 2.33653 32.6436 4.07532 32.6453C7.02398 32.6488 9.97264 32.6488 12.9213 32.6453C14.6684 32.6436 15.4327 32.0245 15.4535 30.5579C15.4743 29.1698 15.4576 27.7834 15.4576 26.3953C15.4576 22.0007 15.466 17.6062 15.4514 13.2133C15.4472 11.7066 14.6976 11.0736 12.9859 11.0701C10.0705 11.0649 7.15725 11.0666 4.24191 11.0701C2.24074 11.0701 1.55563 11.6543 1.55355 13.3738C1.5473 16.1779 1.55355 18.9821 1.55355 21.7862L1.55147 21.7845ZM6.7491 9.66979H12.6277V5.27173H6.7491V9.66979ZM10.739 3.8156V1.423H8.63575V3.8156H10.739Z" fill="#325F8D"/>
</svg>
