<svg width="30" height="30" viewBox="0 0 30 30" fill="none" xmlns="http://www.w3.org/2000/svg">
<path d="M29.9953 25.6537C29.7975 26.2079 29.3947 26.5407 28.8817 26.8C26.9805 27.7614 25.0856 28.7362 23.2001 29.7284C22.5721 30.0589 21.9981 30.0565 21.3686 29.7253C19.3447 28.6595 17.3043 27.6262 15.2757 26.5708C15.077 26.468 14.9253 26.4767 14.7345 26.5787C14.0361 26.9511 13.33 27.3092 12.6253 27.6705C12.4298 27.7709 12.2312 27.7875 12.0474 27.6412C11.8918 27.5171 11.8644 27.3432 11.8988 27.159C11.9332 26.9764 12.0701 26.8839 12.2234 26.8048C12.9014 26.4561 13.574 26.0972 14.2575 25.7596C14.4639 25.6576 14.5312 25.5303 14.5304 25.3019C14.5226 22.8953 14.5257 20.4895 14.5257 18.0829C14.5257 17.7477 14.5234 17.7461 14.2363 17.894C12.325 18.8791 10.4153 19.8673 8.50083 20.8453C8.29828 20.9488 8.22086 21.0722 8.22164 21.3014C8.22868 23.708 8.22555 26.1138 8.22633 28.5204C8.22633 28.8406 8.24745 28.8524 8.53446 28.7046C9.07329 28.4271 9.60899 28.1441 10.1494 27.8689C10.4841 27.699 10.7555 27.7567 10.8876 28.012C11.0292 28.2856 10.9197 28.552 10.5787 28.7291C9.87645 29.0944 9.17261 29.4565 8.46564 29.8138C7.98077 30.0589 7.49121 30.0652 7.004 29.8138C4.96208 28.7623 2.91782 27.714 0.879813 26.6562C0.291716 26.351 -0.0023322 25.8584 1.39284e-05 25.173C0.00861641 22.6779 0.00548824 20.1827 0.00236006 17.6876C0.00157802 16.9856 0.313614 16.4907 0.92048 16.1618C2.9319 15.0723 4.93784 13.9726 6.95317 12.8911C7.19873 12.7598 7.27068 12.6065 7.26989 12.3377C7.26051 9.93107 7.26989 7.52528 7.26129 5.11871C7.25895 4.34866 7.58584 3.81343 8.25762 3.45292C10.2471 2.38482 12.2288 1.30249 14.2121 0.221747C14.7345 -0.0628681 15.2546 -0.0786801 15.7762 0.204354C17.8134 1.30803 19.8491 2.41328 21.8839 3.5217C22.4697 3.8411 22.7528 4.34867 22.7559 5.01909C22.7575 5.51242 22.7598 6.00497 22.7551 6.4983C22.752 6.83588 22.5862 7.03037 22.307 7.04539C22.0302 7.05962 21.8261 6.8762 21.8073 6.54494C21.7846 6.15202 21.7917 5.75672 21.7979 5.36221C21.8011 5.16219 21.7674 5.08629 21.5547 5.19698C19.6019 6.20894 17.6468 7.21537 15.6909 8.22022C15.5517 8.29137 15.4931 8.38625 15.4931 8.54516C15.4962 10.981 15.4962 13.4168 15.4931 15.8526C15.4931 16.0598 15.54 16.1278 15.7433 16.0155C16.3854 15.6605 17.0282 15.3079 17.6773 14.9688C17.8963 14.8541 17.8588 14.7118 17.8001 14.5276C17.0806 12.2744 17.98 9.95558 20.018 8.79973C21.8104 7.78302 24.2387 8.14432 25.6581 9.63855C25.795 9.78323 25.9279 9.93582 25.9005 10.1532C25.8771 10.343 25.766 10.4782 25.5854 10.5454C25.3742 10.6244 25.1998 10.5454 25.0559 10.3952C24.6712 9.99195 24.2309 9.67571 23.7163 9.46383C21.3897 8.50563 18.8277 10.0505 18.5298 12.5764C18.2858 14.643 19.7599 16.531 21.8206 16.8093C23.7945 17.0765 25.6659 15.6645 26.0108 13.6556C26.0984 13.1441 26.0804 12.6365 25.9733 12.1297C25.9029 11.7961 26.0444 11.5447 26.322 11.4886C26.6091 11.4308 26.8288 11.5929 26.9047 11.9289C27.1049 12.8152 27.0673 13.6927 26.7647 14.5482C26.6865 14.7695 26.7139 14.8739 26.9258 14.9838C27.6023 15.3348 28.2592 15.7262 28.9395 16.0677C29.4369 16.3167 29.8061 16.6622 30 17.1911V25.6537H29.9953ZM7.26364 24.8844C7.26364 23.6914 7.25895 22.4976 7.26755 21.3046C7.26911 21.0888 7.20264 20.9678 7.00791 20.8682C5.06688 19.876 3.13054 18.8767 1.19576 17.8726C0.986953 17.7643 0.915787 17.7714 0.916569 18.0386C0.92439 20.3757 0.922044 22.7135 0.92048 25.0505C0.92048 25.4212 1.06672 25.679 1.40613 25.8521C3.26035 26.7985 5.10832 27.7559 6.95942 28.7085C7.24878 28.8572 7.26286 28.8485 7.26286 28.5236C7.26442 27.3108 7.26286 26.0972 7.26286 24.8844H7.26364ZM22.7544 24.8868C22.7544 26.0996 22.7544 27.3124 22.7544 28.5259C22.7544 28.8445 22.7708 28.8572 23.0328 28.7228C24.8674 27.7812 26.6974 26.8301 28.5376 25.8988C28.9411 25.6948 29.1014 25.4015 29.0999 24.9595C29.0928 22.6621 29.0967 20.3638 29.096 18.0663C29.096 17.7414 29.0928 17.7398 28.7964 17.8924C26.8679 18.8862 24.941 19.8831 23.0085 20.8706C22.8138 20.9702 22.7481 21.0927 22.7497 21.307C22.7583 22.5 22.7536 23.693 22.7536 24.8868H22.7544ZM15.4923 21.6888C15.4923 22.9016 15.4947 24.1136 15.49 25.3264C15.49 25.5082 15.522 25.6363 15.7042 25.7296C17.6437 26.721 19.58 27.7187 21.514 28.722C21.7401 28.839 21.7964 28.7876 21.7956 28.5441C21.7909 26.1193 21.7909 23.6946 21.7956 21.2698C21.7956 21.0643 21.7236 20.9504 21.5422 20.8579C19.6121 19.8697 17.6844 18.8759 15.7598 17.8758C15.5291 17.7564 15.486 17.8102 15.4876 18.0521C15.4962 19.2641 15.4915 20.4768 15.4915 21.6888H15.4923ZM14.5257 12.2262C14.5257 11.0237 14.521 9.82039 14.5296 8.61789C14.5312 8.40048 14.4553 8.2811 14.2645 8.18385C12.3422 7.20035 10.4239 6.20815 8.50396 5.21911C8.23259 5.07918 8.22477 5.08471 8.22477 5.40332C8.22399 7.73954 8.22712 10.0765 8.22008 12.4128C8.22008 12.6405 8.29515 12.7685 8.49379 12.876C10.3949 13.9007 12.2906 14.9348 14.1894 15.9649C14.5179 16.1428 14.5241 16.1373 14.5241 15.7451C14.5241 14.5719 14.5241 13.3986 14.5241 12.2254L14.5257 12.2262ZM1.50701 16.9373C1.62823 17.0069 1.69314 17.048 1.76118 17.0828C3.64512 18.0545 5.53063 19.0222 7.41066 20.0017C7.64058 20.1219 7.82593 20.1337 8.06289 20.0096C9.93354 19.0332 11.8112 18.0703 13.6858 17.1018C13.7609 17.0631 13.8844 17.0472 13.8852 16.9532C13.8868 16.8409 13.753 16.8235 13.6725 16.7792C11.7682 15.7404 9.86159 14.7063 7.95887 13.6651C7.79308 13.5741 7.66483 13.5844 7.5006 13.6753C6.31971 14.326 5.13257 14.9648 3.94777 15.6084C3.15087 16.0416 2.35475 16.4764 1.50701 16.9373ZM21.1989 4.2617C21.1621 4.23482 21.1277 4.2032 21.0878 4.18185C19.1898 3.15091 17.2902 2.12234 15.393 1.08982C15.1279 0.945934 14.88 0.950678 14.6164 1.09457C12.9342 2.01166 11.2497 2.92243 9.56598 3.83636C9.31337 3.97313 9.0639 4.11544 8.77924 4.27435C8.89967 4.34155 8.97397 4.38582 9.05061 4.42456C10.9353 5.397 12.8216 6.36469 14.7024 7.34503C14.9277 7.46283 15.1044 7.45729 15.3273 7.34108C17.2167 6.35678 19.1116 5.38356 21.0041 4.40638C21.0706 4.37159 21.1527 4.35657 21.1989 4.2617ZM28.5235 16.9405C27.7899 16.5428 27.1088 16.1847 26.4401 15.8044C26.2493 15.6961 26.1672 15.7404 26.0421 15.9017C25.0653 17.1627 23.7741 17.8173 22.1929 17.7872C20.6952 17.7588 19.4667 17.1184 18.5384 15.9206C18.4062 15.7507 18.3006 15.7024 18.1028 15.8147C17.517 16.1483 16.9203 16.4622 16.3291 16.7871C16.2548 16.8275 16.1367 16.848 16.1328 16.9429C16.1289 17.0464 16.2532 17.0567 16.3267 17.0947C18.2185 18.0726 20.1142 19.0435 22.0028 20.027C22.2116 20.1353 22.3743 20.1211 22.5745 20.0175C24.0745 19.238 25.5791 18.4695 27.0814 17.6947C27.5413 17.4584 27.9972 17.2156 28.5227 16.9397L28.5235 16.9405Z" fill="#325F8D"/>
<path d="M21.9426 15.0001C21.8088 14.9899 21.6853 14.9411 21.5771 14.8501C21.1298 14.4738 20.6768 14.1034 20.2335 13.7234C19.9586 13.4883 19.9305 13.2641 20.1277 13.0552C20.3217 12.8507 20.6159 12.8529 20.8949 13.0749C21.165 13.2903 21.4336 13.5087 21.6861 13.7409C21.8561 13.8959 21.9739 13.9054 22.1463 13.7351C22.7275 13.1608 23.3247 12.5989 23.9179 12.034C24.0277 11.9292 24.1375 11.8193 24.269 11.74C24.4686 11.6192 24.6762 11.6534 24.8446 11.8019C25.0113 11.9503 25.0498 12.1323 24.9312 12.3237C24.8879 12.3936 24.827 12.4569 24.766 12.5159C23.982 13.2663 23.1956 14.0153 22.4116 14.7657C22.2841 14.8873 22.1487 14.9892 21.9434 14.9994L21.9426 15.0001Z" fill="#325F8D"/>
</svg>
