<svg width="31" height="31" viewBox="0 0 31 31" fill="none" xmlns="http://www.w3.org/2000/svg">
<path d="M31.0002 27.9739C30.764 28.2327 30.5367 28.4996 30.2908 28.7488C29.6242 29.4242 28.9552 30.0956 28.2782 30.7606C27.8745 31.1569 27.2865 31.0267 27.1481 30.5203C27.0737 30.2461 27.1821 30.0293 27.373 29.8392C27.7597 29.455 28.1439 29.0691 28.5289 28.6833C28.5977 28.6145 28.6608 28.5409 28.7603 28.4333H3.87326C3.87326 28.8709 3.87326 29.3013 3.87326 29.7308C3.87326 29.9428 3.88135 30.1547 3.87002 30.3666C3.8498 30.7331 3.57234 31 3.22774 31C2.88153 31 2.60245 30.7347 2.59356 30.365C2.58061 29.8408 2.5887 29.3158 2.58789 28.7909C2.58789 28.6817 2.58789 28.5716 2.58789 28.4131C2.31529 28.4131 2.06776 28.4131 1.82023 28.4131C1.44652 28.4131 1.07361 28.4179 0.699889 28.4107C0.280063 28.4026 0.00422341 28.147 0.00098776 27.7765C-0.0022479 27.3979 0.288152 27.131 0.719303 27.1269C1.23377 27.1221 1.74824 27.1269 2.26271 27.1253C2.36059 27.1253 2.45847 27.1172 2.57091 27.1116V2.26658C2.4973 2.32158 2.4342 2.35717 2.38405 2.40652C1.99739 2.78994 1.61315 3.1766 1.2273 3.56084C0.85601 3.93051 0.491189 3.97338 0.196745 3.68622C-0.0985086 3.39744 -0.0604897 3.02291 0.30433 2.65728C1.0817 1.87992 1.85825 1.10174 2.63886 0.326801C2.75857 0.207891 2.89609 0.108394 3.02552 0C3.14685 0 3.26738 0 3.38872 0C3.53918 0.115675 3.7042 0.21598 3.83847 0.348642C4.62069 1.12196 5.40534 1.89367 6.16653 2.68721C6.31213 2.83929 6.41729 3.08034 6.43671 3.28985C6.46016 3.54385 6.2822 3.73637 6.02901 3.83102C5.76045 3.93132 5.5291 3.85528 5.33577 3.666C4.93132 3.27125 4.53576 2.8676 4.13535 2.4688C4.06659 2.40005 3.99379 2.33614 3.89186 2.24069V27.1059H28.7878C28.3316 26.6553 27.9182 26.2476 27.5057 25.8391C27.4272 25.7615 27.3431 25.6862 27.2751 25.5997C27.0559 25.3222 27.0818 24.9574 27.3293 24.7236C27.5655 24.5004 27.9287 24.4818 28.1827 24.7067C28.4319 24.9267 28.66 25.171 28.8954 25.4056C29.4738 25.9831 30.0546 26.5583 30.6273 27.1415C30.7664 27.283 30.8764 27.4537 30.9994 27.6115V27.9747L31.0002 27.9739Z" fill="#325F8D"/>
<path d="M7.74886 14.1803C7.74886 12.5059 7.74886 10.8314 7.74886 9.15615C7.74886 8.70721 7.86615 8.54947 8.2795 8.39092C10.9594 7.3636 13.6394 6.3379 16.3144 5.29925C16.6364 5.17468 16.9211 5.16174 17.2439 5.28712C19.9481 6.33466 22.6555 7.37169 25.3621 8.41276C25.6898 8.53895 25.8475 8.75898 25.8467 9.09953C25.8443 12.4387 25.8402 15.7779 25.837 19.1171C25.837 19.7262 25.7464 19.8557 25.1704 20.0773C22.4832 21.1127 19.7984 22.1522 17.1064 23.1746C16.9268 23.2426 16.6776 23.249 16.4997 23.1811C13.7704 22.1441 11.0468 21.0901 8.32238 20.0393C7.85482 19.8589 7.74805 19.7044 7.74805 19.2037C7.74805 17.5292 7.74805 15.8548 7.74805 14.1795L7.74886 14.1803ZM16.1316 21.6458C16.1397 21.518 16.1494 21.4306 16.1494 21.3432C16.1502 18.5582 16.147 15.7739 16.1567 12.9888C16.1567 12.7599 16.0661 12.6774 15.8752 12.6046C13.7211 11.7819 11.5694 10.9519 9.41684 10.1252C9.30035 10.0807 9.17902 10.0468 9.04635 10.0039C9.0415 10.0864 9.03584 10.1366 9.03584 10.1867C9.03584 13.022 9.03746 15.8572 9.03017 18.6924C9.03017 18.8963 9.11673 18.9642 9.2866 19.0289C11.4407 19.8516 13.5924 20.6816 15.7458 21.5091C15.8639 21.5544 15.9844 21.594 16.1308 21.6466L16.1316 21.6458ZM24.5362 10.0104C24.4384 10.0379 24.3704 10.0516 24.3065 10.0759C22.0885 10.9285 19.872 11.7843 17.6508 12.6288C17.4542 12.704 17.4332 12.8141 17.4332 12.9904C17.4372 15.7844 17.4356 18.5776 17.4364 21.3716C17.4364 21.4565 17.4461 21.5422 17.4534 21.6474C17.5739 21.607 17.6694 21.5794 17.7616 21.5439C19.923 20.7131 22.082 19.8783 24.2458 19.0556C24.4707 18.9699 24.5419 18.8615 24.5411 18.6196C24.5314 15.8564 24.5346 13.0931 24.5346 10.3291V10.0096L24.5362 10.0104ZM23.3641 9.0518C23.2719 9.0057 23.229 8.98062 23.1837 8.96282C21.1267 8.17171 19.0704 7.37735 17.0101 6.59675C16.8774 6.5466 16.6906 6.55388 16.5555 6.60484C14.9644 7.20425 13.3781 7.81659 11.7902 8.42651C11.2773 8.62389 10.7653 8.82531 10.2112 9.04129C10.3277 9.08901 10.3916 9.11733 10.4571 9.1424C12.4478 9.90844 14.441 10.6688 16.4277 11.4462C16.693 11.5497 16.9122 11.5424 17.1719 11.4413C19.2152 10.6446 21.2634 9.86072 23.3641 9.05261V9.0518Z" fill="#325F8D"/>
</svg>
