<svg width="32" height="32" viewBox="0 0 32 32" fill="none" xmlns="http://www.w3.org/2000/svg">
<g id="Group 248687">
<path id="Vector" d="M26 24.4375H27.875C28.703 24.435 29.4965 24.105 30.082 23.5195C30.6675 22.934 30.9975 22.1405 31 21.3125V8.8125C30.9975 7.98446 30.6675 7.19104 30.082 6.60552C29.4965 6.02001 28.703 5.68997 27.875 5.6875H4.125C3.29696 5.68997 2.50354 6.02001 1.91802 6.60552C1.33251 7.19104 1.00247 7.98446 1 8.8125V21.3125C1.00247 22.1405 1.33251 22.934 1.91802 23.5195C2.50354 24.105 3.29696 24.435 4.125 24.4375H6" stroke="white" stroke-width="2" stroke-linejoin="round"/>
<path id="Vector_2" d="M24.3531 15.0625H7.64688C6.56474 15.0625 5.6875 15.8968 5.6875 16.926V29.1365C5.6875 30.1657 6.56474 31 7.64688 31H24.3531C25.4353 31 26.3125 30.1657 26.3125 29.1365V16.926C26.3125 15.8968 25.4353 15.0625 24.3531 15.0625Z" stroke="white" stroke-width="2" stroke-linejoin="round"/>
<path id="Vector_3" d="M26.3125 5.6875V3.92969C26.3099 3.1534 25.9696 2.40957 25.3658 1.86065C24.762 1.31173 23.9438 1.00232 23.0898 1H8.91016C8.05624 1.00232 7.23803 1.31173 6.63421 1.86065C6.0304 2.40957 5.69005 3.1534 5.6875 3.92969V5.6875" stroke="white" stroke-width="2" stroke-linejoin="round"/>
<path id="Vector_4" d="M26.3125 12.25C27.348 12.25 28.1875 11.4105 28.1875 10.375C28.1875 9.33947 27.348 8.5 26.3125 8.5C25.277 8.5 24.4375 9.33947 24.4375 10.375C24.4375 11.4105 25.277 12.25 26.3125 12.25Z" fill="white"/>
</g>
</svg>
