<svg width="26" height="26" viewBox="0 0 26 26" fill="none" xmlns="http://www.w3.org/2000/svg">
<path id="Vector" d="M11.18 26V22.5768C7.26544 21.8322 4.1678 18.7346 3.42316 14.82H0V11.18H3.42316C4.1678 7.26544 7.26544 4.1678 11.18 3.42316V0H14.82V3.42316C18.7346 4.1678 21.8322 7.26544 22.5768 11.18H26V14.82H22.5768C21.8322 18.7346 18.7346 21.8322 14.82 22.5768V26H11.18ZM13 20.15C13.9397 20.1526 14.8706 19.9694 15.7392 19.611C16.6079 19.2526 17.3971 18.726 18.0616 18.0616C18.726 17.3971 19.2526 16.6079 19.611 15.7392C19.9694 14.8706 20.1526 13.9397 20.15 13C20.1526 12.0603 19.9694 11.1294 19.611 10.2608C19.2526 9.39213 18.726 8.6029 18.0616 7.93845C17.3971 7.274 16.6079 6.74743 15.7392 6.38902C14.8706 6.03061 13.9397 5.84743 13 5.85C12.0603 5.84743 11.1294 6.03061 10.2608 6.38902C9.39213 6.74743 8.6029 7.274 7.93845 7.93845C7.274 8.6029 6.74743 9.39213 6.38902 10.2608C6.03061 11.1294 5.84743 12.0603 5.85 13C5.84743 13.9397 6.03061 14.8706 6.38902 15.7392C6.74743 16.6079 7.274 17.3971 7.93845 18.0616C8.6029 18.726 9.39213 19.2526 10.2608 19.611C11.1294 19.9694 12.0603 20.1526 13 20.15Z" fill="white"/>
</svg>
